<svg width="24" height="32" viewBox="0 0 24 32" fill="none" xmlns="http://www.w3.org/2000/svg">
<path d="M23.497 24.6405C23.0661 25.7451 22.5561 26.762 21.9651 27.6969C21.1596 28.9713 20.5001 29.8535 19.9918 30.3434C19.2039 31.1475 18.3597 31.5593 17.4557 31.5827C16.8067 31.5827 16.024 31.3778 15.113 30.9621C14.199 30.5483 13.359 30.3434 12.5909 30.3434C11.7854 30.3434 10.9215 30.5483 9.99748 30.9621C9.07202 31.3778 8.32648 31.5944 7.75647 31.6159C6.88958 31.6569 6.0255 31.2333 5.16301 30.3434C4.61252 29.8106 3.92396 28.8972 3.09911 27.6032C2.2141 26.2214 1.4865 24.619 0.916488 22.7922C0.306024 20.819 0 18.9083 0 17.0585C0 14.9395 0.412604 13.112 1.23904 11.5804C1.88855 10.3503 2.75263 9.3799 3.83409 8.66753C4.91555 7.95516 6.08407 7.59214 7.34246 7.56891C8.03101 7.56891 8.93396 7.80527 10.056 8.26977C11.175 8.73584 11.8934 8.97219 12.2084 8.97219C12.4439 8.97219 13.242 8.69583 14.595 8.14486C15.8745 7.63391 16.9544 7.42234 17.8391 7.50568C20.2363 7.72037 22.0372 8.76902 23.2349 10.6583C21.091 12.0998 20.0305 14.1188 20.0516 16.7089C20.0709 18.7264 20.7305 20.4053 22.0267 21.7383C22.6141 22.357 23.2701 22.8352 24 23.1748C23.8417 23.6841 23.6746 24.1721 23.497 24.6405ZM17.9991 0.632552C17.9991 2.21384 17.4785 3.69029 16.4409 5.05687C15.1886 6.68147 13.674 7.62024 12.0315 7.47211C12.0106 7.2824 11.9984 7.08274 11.9984 6.87294C11.9984 5.3549 12.5939 3.7303 13.6515 2.40197C14.1795 1.72941 14.8509 1.17019 15.6653 0.724086C16.4778 0.28464 17.2464 0.0416167 17.9692 0C17.9903 0.211394 17.9991 0.422801 17.9991 0.632532V0.632552Z" fill="white"/>
</svg>
