<svg width="24" height="32" viewBox="0 0 24 32" fill="none" xmlns="http://www.w3.org/2000/svg">
<path d="M23.497 24.6404C23.0661 25.7451 22.5561 26.7619 21.9651 27.6968C21.1596 28.9713 20.5001 29.8534 19.9918 30.3433C19.2039 31.1474 18.3597 31.5592 17.4557 31.5826C16.8067 31.5826 16.024 31.3777 15.113 30.962C14.199 30.5482 13.359 30.3433 12.5909 30.3433C11.7854 30.3433 10.9215 30.5482 9.99748 30.962C9.07202 31.3777 8.32648 31.5943 7.75647 31.6158C6.88958 31.6568 6.0255 31.2333 5.16301 30.3433C4.61252 29.8105 3.92396 28.8971 3.09911 27.6031C2.2141 26.2213 1.4865 24.619 0.916488 22.7922C0.306024 20.819 0 18.9083 0 17.0585C0 14.9395 0.412605 13.1119 1.23904 11.5804C1.88855 10.3503 2.75263 9.37988 3.83409 8.66751C4.91555 7.95514 6.08407 7.59212 7.34246 7.5689C8.03101 7.5689 8.93396 7.80525 10.056 8.26976C11.175 8.73582 11.8934 8.97217 12.2084 8.97217C12.4439 8.97217 13.242 8.69581 14.595 8.14485C15.8745 7.63389 16.9544 7.42233 17.8391 7.50566C20.2363 7.72035 22.0372 8.769 23.2349 10.6582C21.091 12.0998 20.0305 14.1188 20.0516 16.7089C20.0709 18.7264 20.7305 20.4052 22.0267 21.7383C22.6141 22.3569 23.2701 22.8351 24 23.1747C23.8417 23.6841 23.6746 24.172 23.497 24.6404ZM17.9991 0.632551C17.9991 2.21384 17.4785 3.69028 16.4409 5.05686C15.1886 6.68146 13.674 7.62023 12.0315 7.47209C12.0106 7.28239 11.9984 7.08273 11.9984 6.87292C11.9984 5.35489 12.5939 3.73029 13.6515 2.40196C14.1795 1.72941 14.8509 1.17019 15.6653 0.724085C16.4778 0.284639 17.2464 0.0416166 17.9692 0C17.9903 0.211394 17.9991 0.4228 17.9991 0.63253V0.632551Z" fill="#0052FF"/>
</svg>
