<svg width="26" height="25" viewBox="0 0 26 25" fill="none" xmlns="http://www.w3.org/2000/svg">
<g clip-path="url(#clip0_0_51)">
<path d="M0.5 12.5C0.5 10.2333 1.05835 8.14167 2.175 6.225C3.29168 4.30833 4.80835 2.79168 6.725 1.675C8.64167 0.558325 10.7333 0 13 0C15.2667 0 17.3584 0.558325 19.275 1.675C21.1917 2.79168 22.7084 4.30833 23.825 6.225C24.9417 8.14167 25.5 10.2333 25.5 12.5C25.5 14.7667 24.9417 16.8583 23.825 18.775C22.7084 20.6917 21.1917 22.2083 19.275 23.325C17.3584 24.4417 15.2667 25 13 25C10.7333 25 8.64167 24.4417 6.725 23.325C4.80835 22.2083 3.29168 20.6917 2.175 18.775C1.05835 16.8583 0.5 14.7667 0.5 12.5ZM2.575 12.5C2.575 15.1 3.45 17.3917 5.2 19.375C6 17.8083 7.26667 16.3167 9 14.9C10.7333 13.4833 12.425 12.5917 14.075 12.225C13.825 11.6417 13.5834 11.1167 13.35 10.65C10.4833 11.5667 7.38335 12.025 4.05 12.025C3.4 12.025 2.91668 12.0167 2.6 12C2.6 12.0667 2.59585 12.15 2.5875 12.25C2.57917 12.35 2.575 12.4333 2.575 12.5ZM2.9 9.925C3.26667 9.95833 3.80835 9.975 4.525 9.975C7.30835 9.975 9.95 9.6 12.45 8.85C11.1834 6.6 9.79168 4.725 8.275 3.225C6.95835 3.89167 5.82917 4.81668 4.8875 6C3.94585 7.18333 3.28335 8.49168 2.9 9.925ZM6.625 20.725C8.50835 22.1917 10.6334 22.925 13 22.925C14.2333 22.925 15.4584 22.6917 16.675 22.225C16.3417 19.375 15.6917 16.6167 14.725 13.95C13.1917 14.2833 11.6459 15.125 10.0875 16.475C8.52917 17.825 7.375 19.2417 6.625 20.725ZM10.45 2.425C11.9167 3.94167 13.275 5.83332 14.525 8.1C16.7917 7.15 18.5 5.94168 19.65 4.475C17.7167 2.875 15.5 2.075 13 2.075C12.15 2.075 11.3 2.19167 10.45 2.425ZM15.425 9.875C15.675 10.4083 15.9584 11.0833 16.275 11.9C17.5084 11.7833 18.85 11.725 20.3 11.725C21.3334 11.725 22.3584 11.75 23.375 11.8C23.2417 9.53333 22.425 7.51667 20.925 5.75C19.8417 7.36667 18.0084 8.74168 15.425 9.875ZM16.9 13.65C17.75 16.1167 18.325 18.65 18.625 21.25C19.9417 20.4 21.0167 19.3083 21.85 17.975C22.6833 16.6417 23.1833 15.2 23.35 13.65C22.1334 13.5667 21.025 13.525 20.025 13.525C19.1084 13.525 18.0667 13.5667 16.9 13.65Z" fill="#464646"/>
</g>
<defs>
<clipPath id="clip0_0_51">
<rect width="25" height="25" fill="white" transform="translate(0.5)"/>
</clipPath>
</defs>
</svg>
