<svg width="25" height="22" viewBox="0 0 25 22" fill="none" xmlns="http://www.w3.org/2000/svg">
<path d="M10.0694 9.84473C11.4497 9.21387 12.1701 8.25928 12.1701 6.77344C12.1701 3.84326 9.88715 3.12939 7.2526 3.12939H0V17.8384H7.4566C10.2517 17.8384 12.8776 16.5559 12.8776 13.5676C12.8776 11.7207 11.9618 10.3552 10.0694 9.84473ZM3.38108 5.64038H6.55382C7.77344 5.64038 8.87153 5.96826 8.87153 7.32129C8.87153 8.57056 8.01649 9.07275 6.8099 9.07275H3.38108V5.64038ZM6.99653 15.3398H3.38108V11.2891H7.06597C8.55469 11.2891 9.49653 11.8826 9.49653 13.3892C9.49653 14.875 8.3724 15.3398 6.99653 15.3398ZM22.5564 5.34985H16.3194V3.90137H22.5564V5.34985ZM25 12.667C25 9.51685 23.0729 6.88965 19.579 6.88965C16.1849 6.88965 13.8802 9.33008 13.8802 12.5259C13.8802 15.842 16.0634 18.1165 19.579 18.1165C22.2396 18.1165 23.9627 16.9709 24.7917 14.5347H22.092C21.8012 15.4436 20.6033 15.925 19.6745 15.925C17.8819 15.925 16.9401 14.9207 16.9401 13.2148H24.974C24.987 13.0405 25 12.8538 25 12.667ZM16.9444 11.3721C17.0443 9.97339 18.0165 9.09766 19.4835 9.09766C21.02 9.09766 21.7925 9.96094 21.9227 11.3721H16.9444Z" fill="#464646"/>
</svg>
