<svg width="40" height="40" viewBox="0 0 40 40" fill="none" xmlns="http://www.w3.org/2000/svg">
<circle cx="20" cy="20" r="20" fill="#3A86FF"/>
<path d="M12.0156 25V13.625H16C17.3802 13.625 18.4271 13.8906 19.1406 14.4219C19.8542 14.9479 20.2109 15.7214 20.2109 16.7422C20.2109 17.2995 20.0677 17.7917 19.7812 18.2188C19.4948 18.6406 19.0964 18.9505 18.5859 19.1484C19.1693 19.2943 19.6276 19.5885 19.9609 20.0312C20.2995 20.474 20.4688 21.0156 20.4688 21.6562C20.4688 22.75 20.1198 23.5781 19.4219 24.1406C18.724 24.7031 17.7292 24.9896 16.4375 25H12.0156ZM14.3594 20.0469V23.1172H16.3672C16.9193 23.1172 17.349 22.987 17.6562 22.7266C17.9688 22.4609 18.125 22.0964 18.125 21.6328C18.125 20.5911 17.5859 20.0625 16.5078 20.0469H14.3594ZM14.3594 18.3906H16.0938C17.276 18.3698 17.8672 17.8984 17.8672 16.9766C17.8672 16.4609 17.7161 16.0911 17.4141 15.8672C17.1172 15.638 16.6458 15.5234 16 15.5234H14.3594V18.3906ZM25.9766 25.1562C24.737 25.1562 23.7266 24.776 22.9453 24.0156C22.1693 23.2552 21.7812 22.2422 21.7812 20.9766V20.7578C21.7812 19.9089 21.9453 19.151 22.2734 18.4844C22.6016 17.8125 23.0651 17.2969 23.6641 16.9375C24.2682 16.5729 24.9557 16.3906 25.7266 16.3906C26.8828 16.3906 27.7917 16.7552 28.4531 17.4844C29.1198 18.2135 29.4531 19.2474 29.4531 20.5859V21.5078H24.0703C24.1432 22.0599 24.362 22.5026 24.7266 22.8359C25.0964 23.1693 25.5625 23.3359 26.125 23.3359C26.9948 23.3359 27.6745 23.0208 28.1641 22.3906L29.2734 23.6328C28.9349 24.112 28.4766 24.487 27.8984 24.7578C27.3203 25.0234 26.6797 25.1562 25.9766 25.1562ZM25.7188 18.2188C25.2708 18.2188 24.9062 18.3698 24.625 18.6719C24.349 18.974 24.1719 19.4062 24.0938 19.9688H27.2344V19.7891C27.224 19.2891 27.0885 18.9036 26.8281 18.6328C26.5677 18.3568 26.1979 18.2188 25.7188 18.2188Z" fill="white"/>
</svg>
