<svg width="40" height="40" viewBox="0 0 40 40" fill="none" xmlns="http://www.w3.org/2000/svg">
<circle cx="20" cy="20" r="20" fill="#3A86FF"/>
<path d="M13.0156 25V13.625H16.5156C17.5156 13.625 18.4089 13.8516 19.1953 14.3047C19.987 14.7526 20.6042 15.3932 21.0469 16.2266C21.4896 17.0547 21.7109 17.9974 21.7109 19.0547V19.5781C21.7109 20.6354 21.4922 21.5755 21.0547 22.3984C20.6224 23.2214 20.0104 23.8594 19.2188 24.3125C18.4271 24.7656 17.5339 24.9948 16.5391 25H13.0156ZM15.3594 15.5234V23.1172H16.4922C17.4089 23.1172 18.1094 22.8177 18.5938 22.2188C19.0781 21.6198 19.3255 20.763 19.3359 19.6484V19.0469C19.3359 17.8906 19.0964 17.0156 18.6172 16.4219C18.138 15.8229 17.4375 15.5234 16.5156 15.5234H15.3594ZM28.0234 18.6641C27.7161 18.6224 27.4453 18.6016 27.2109 18.6016C26.3568 18.6016 25.7969 18.8906 25.5312 19.4688V25H23.2734V16.5469H25.4062L25.4688 17.5547C25.9219 16.7786 26.5495 16.3906 27.3516 16.3906C27.6016 16.3906 27.8359 16.4245 28.0547 16.4922L28.0234 18.6641Z" fill="white"/>
</svg>
