<svg width="24" height="24" viewBox="0 0 24 24" fill="none" xmlns="http://www.w3.org/2000/svg">
<path d="M4.64272 4.80005H20.5427C22.0427 4.80005 22.7987 5.50805 22.7987 6.94805V17.052C22.7987 18.48 22.0427 19.2 20.5427 19.2H4.64272C3.14272 19.2 2.38672 18.48 2.38672 17.052V6.94805C2.38672 5.50805 3.14272 4.80005 4.64272 4.80005ZM12.5867 15.12L20.6747 8.48405C20.9627 8.24405 21.1907 7.69205 20.8307 7.20005C20.4827 6.70805 19.8467 6.69605 19.4267 6.99605L12.5867 11.628L5.75872 6.99605C5.33872 6.69605 4.70272 6.70805 4.35472 7.20005C3.99472 7.69205 4.22272 8.24405 4.51072 8.48405L12.5867 15.12Z" fill="black"/>
</svg>
