<svg width="16" height="16" viewBox="0 0 16 16" fill="none" xmlns="http://www.w3.org/2000/svg">
<path d="M16 8.00004C16 3.58173 12.4183 0 8.00001 0C3.58172 0 0 3.58173 0 8.00004C0 11.9931 2.92548 15.3027 6.75 15.9029V10.3125H4.71875V8.00004H6.75V6.23753C6.75 4.23252 7.94434 3.12502 9.77172 3.12502C10.647 3.12502 11.5625 3.28126 11.5625 3.28126V5.25002H10.5537C9.55992 5.25002 9.25001 5.8667 9.25001 6.49937V8.00004H11.4688L11.1141 10.3125H9.25V15.9029C13.0745 15.3027 16 11.9931 16 8.00004Z" fill="#1877F2"/>
<path d="M11.1141 10.3124L11.4688 7.99986H9.25006V6.49918C9.25006 5.86652 9.55998 5.24985 10.5538 5.24985H11.5626V3.28109C11.5626 3.28109 10.647 3.12484 9.77178 3.12484C7.9444 3.12484 6.75006 4.23234 6.75006 6.23735V7.99986H4.71881V10.3124H6.75006V15.9027C7.16357 15.9675 7.5815 16 8.00006 15.9999C8.42531 15.9999 8.84276 15.9666 9.25006 15.9027V10.3124H11.1141Z" fill="white"/>
</svg>
