<svg width="26" height="26" viewBox="0 0 26 26" fill="none" xmlns="http://www.w3.org/2000/svg">
<g clip-path="url(#clip0_22_228)">
<path d="M13 26C20.1797 26 26 20.1797 26 13C26 5.8203 20.1797 0 13 0C5.8203 0 0 5.8203 0 13C0 20.1797 5.8203 26 13 26Z" fill="white"/>
<path d="M16.2683 13.5088H13.9486V22.0071H10.4341V13.5088H8.76257V10.5222H10.4341V8.58949C10.4341 7.20741 11.0906 5.04321 13.9799 5.04321L16.5832 5.0541V7.95314H14.6943C14.3845 7.95314 13.9488 8.10794 13.9488 8.76723V10.525H16.5754L16.2683 13.5088Z" fill="black"/>
</g>
<defs>
<clipPath id="clip0_22_228">
<rect width="26" height="26" fill="white"/>
</clipPath>
</defs>
</svg>
