<svg width="16" height="16" viewBox="0 0 16 16" fill="none" xmlns="http://www.w3.org/2000/svg">
<g clip-path="url(#clip0_2_58)">
<path d="M3.54594 9.66898L2.989 11.7481L0.953406 11.7912C0.345063 10.6628 0 9.37185 0 7.99998C0 6.67338 0.322625 5.42239 0.8945 4.32085H0.894938L2.70719 4.6531L3.50106 6.45448C3.33491 6.93888 3.24434 7.45888 3.24434 7.99998C3.24441 8.58723 3.35078 9.14988 3.54594 9.66898Z" fill="#FBBB00"/>
<path d="M15.8602 6.50558C15.9521 6.98952 16 7.4893 16 8.00008C16 8.57283 15.9398 9.13152 15.8251 9.67043C15.4357 11.5043 14.4181 13.1056 13.0084 14.2388L13.008 14.2383L10.7253 14.1219L10.4023 12.1051C11.3377 11.5566 12.0687 10.6981 12.4537 9.67043H8.1759V6.50558H12.5161H15.8602Z" fill="#518EF8"/>
<path d="M13.0079 14.2382L13.0084 14.2386C11.6374 15.3406 9.89584 15.9999 8.00002 15.9999C4.95343 15.9999 2.30465 14.2971 0.95343 11.7911L3.54596 9.66896C4.22156 11.472 5.9609 12.7556 8.00002 12.7556C8.87649 12.7556 9.69762 12.5186 10.4022 12.105L13.0079 14.2382Z" fill="#28B446"/>
<path d="M13.1063 1.84175L10.5147 3.9635C9.78547 3.50769 8.92347 3.24438 7.99997 3.24438C5.91469 3.24438 4.14281 4.58678 3.50106 6.4545L0.894908 4.32088H0.89447C2.22591 1.75384 4.9081 0 7.99997 0C9.94106 0 11.7208 0.691438 13.1063 1.84175Z" fill="#F14336"/>
</g>
<defs>
<clipPath id="clip0_2_58">
<rect width="16" height="16" fill="white"/>
</clipPath>
</defs>
</svg>
