<svg width="60" height="63" viewBox="0 0 60 63" fill="none" xmlns="http://www.w3.org/2000/svg">
<path d="M36.8041 54.6837V56.4857C36.8041 57.9197 35.7508 59.1126 34.3803 59.3156L33.9361 60.9526C33.695 61.841 32.8955 62.4628 31.9692 62.4628H27.5657C26.6393 62.4628 25.8398 61.841 25.5987 60.9526L25.1672 59.3156C23.784 59.0999 22.7307 57.9197 22.7307 56.473V54.671C22.7307 53.7065 23.5048 52.9324 24.4692 52.9324H35.0656C36.03 52.9451 36.8041 53.7192 36.8041 54.6837ZM44.9639 30.3946C44.9639 34.4935 43.3396 38.2118 40.7 40.9402C38.695 43.0214 37.4006 45.6736 36.9691 48.5035C36.7788 49.7218 35.7255 50.6228 34.4818 50.6228H25.053C23.822 50.6228 22.7561 49.7345 22.5784 48.5162C22.1342 45.6863 20.8272 42.996 18.8221 40.9275C16.2333 38.2372 14.6216 34.5824 14.5836 30.5596C14.4947 22.1079 21.2206 15.2679 29.6722 15.2044C38.1112 15.141 44.9639 21.9683 44.9639 30.3946ZM31.4869 21.1942C31.4869 20.2551 30.7255 19.481 29.7738 19.481C23.7332 19.481 18.8094 24.3921 18.8094 30.4454C18.8094 31.3844 19.5708 32.1585 20.5226 32.1585C21.4617 32.1585 22.2358 31.3971 22.2358 30.4454C22.2358 26.283 25.6241 22.9074 29.7738 22.9074C30.7255 22.9074 31.4869 22.146 31.4869 21.1942ZM29.7738 10.2172C30.7128 10.2172 31.4869 9.45575 31.4869 8.50398V2.50151C31.4869 1.56243 30.7255 0.78833 29.7738 0.78833C28.822 0.78833 28.0606 1.54974 28.0606 2.50151V8.50398C28.0606 9.45575 28.8347 10.2172 29.7738 10.2172ZM9.609 30.3819C9.609 29.4428 8.84759 28.6687 7.89583 28.6687H1.89335C0.954279 28.6687 0.180176 29.4301 0.180176 30.3819C0.180176 31.321 0.941589 32.0951 1.89335 32.0951H7.89583C8.84759 32.0951 9.609 31.3337 9.609 30.3819ZM57.6542 28.6687H51.6517C50.7126 28.6687 49.9385 29.4301 49.9385 30.3819C49.9385 31.321 50.6999 32.0951 51.6517 32.0951H57.6542C58.5932 32.0951 59.3673 31.3337 59.3673 30.3819C59.3673 29.4428 58.6059 28.6687 57.6542 28.6687ZM13.0988 44.6457L8.84759 48.8969C8.17501 49.5695 8.17501 50.6482 8.84759 51.3208C9.17754 51.6507 9.62169 51.8157 10.0532 51.8157C10.4846 51.8157 10.9288 51.6507 11.2587 51.3208L15.51 47.0695C16.1825 46.397 16.1825 45.3183 15.51 44.6457C14.8501 43.9731 13.7587 43.9731 13.0988 44.6457ZM45.2431 16.6257C45.6746 16.6257 46.1188 16.4607 46.4487 16.1308L50.6999 11.8796C51.3725 11.207 51.3725 10.1283 50.6999 9.45575C50.0273 8.78317 48.9487 8.78317 48.2761 9.45575L44.0249 13.707C43.3523 14.3796 43.3523 15.4582 44.0249 16.1308C44.3675 16.4607 44.799 16.6257 45.2431 16.6257ZM13.0988 16.1181C13.4288 16.4481 13.8729 16.613 14.3044 16.613C14.7359 16.613 15.18 16.4481 15.51 16.1181C16.1825 15.4455 16.1825 14.3669 15.51 13.6943L11.2587 9.44306C10.5862 8.77047 9.50748 8.77047 8.8349 9.44306C8.16232 10.1156 8.16232 11.1943 8.8349 11.8669L13.0988 16.1181ZM46.4487 44.6457C45.7761 43.9731 44.6974 43.9731 44.0249 44.6457C43.3523 45.3183 43.3523 46.397 44.0249 47.0695L48.2761 51.3208C48.606 51.6507 49.0502 51.8157 49.4817 51.8157C49.9131 51.8157 50.3573 51.6507 50.6872 51.3208C51.3598 50.6482 51.3598 49.5695 50.6872 48.8969L46.4487 44.6457Z" fill="white"/>
</svg>
