<svg width="62" height="54" viewBox="0 0 62 54" fill="none" xmlns="http://www.w3.org/2000/svg">
<path d="M32.9248 1.84154C32.9248 0.843526 32.1159 0.034668 31.1179 0.034668C30.1199 0.034668 29.311 0.843526 29.311 1.84154V9.58286C29.311 10.5809 30.1199 11.3897 31.1179 11.3897C32.1159 11.3897 32.9248 10.5809 32.9248 9.58286V1.84154Z" fill="#1F37FF"/>
<path d="M22.0987 12.797C22.4512 13.1494 22.9137 13.3264 23.3762 13.3264C23.8383 13.3264 24.3009 13.1499 24.6538 12.797C25.3591 12.0912 25.3591 10.9473 24.6538 10.2415L20.7826 6.37085C20.0773 5.66504 18.9334 5.66504 18.2276 6.37085C17.5218 7.07666 17.5218 8.22054 18.2276 8.92635L22.0987 12.797Z" fill="#1F37FF"/>
<path d="M38.8586 13.3259C39.3212 13.3259 39.7837 13.1494 40.1361 12.7965L44.0073 8.92588C44.7126 8.22054 44.7126 7.07619 44.0073 6.37085C43.3015 5.66504 42.1576 5.66504 41.4518 6.37085L37.5811 10.2415C36.8753 10.9473 36.8753 12.0912 37.5811 12.7965C37.934 13.1494 38.3966 13.3259 38.8586 13.3259Z" fill="#1F37FF"/>
<path d="M25.8903 17.4912C25.8715 17.5067 25.8536 17.5218 25.8367 17.5359L18.0248 24.2326C17.3011 24.8528 16.376 25.1948 15.4218 25.1948H9.82658C4.55419 25.1948 0.280273 29.4612 0.280273 34.7412V52.1619C0.280273 53.1595 1.08913 53.9688 2.08715 53.9688H17.5698C18.5683 53.9688 19.3767 53.159 19.3767 52.1619V35.5745L28.571 27.6934C29.0406 27.2911 29.3107 26.7034 29.3107 26.0851V19.1479C29.3107 17.3834 27.261 16.3798 25.8903 17.4912Z" fill="#1F37FF"/>
<path d="M52.4089 25.1948H46.8137C45.8595 25.1948 44.9344 24.8528 44.2107 24.2321L36.3988 17.5359C36.3819 17.5218 36.364 17.5067 36.3452 17.4912C34.9745 16.3798 32.9248 17.3834 32.9248 19.1479V26.0851C32.9248 26.7034 33.1949 27.2911 33.6645 27.6934L42.8588 35.5745V52.1615C42.8588 53.159 43.6672 53.9683 44.6657 53.9683H60.1484C61.1464 53.9683 61.9552 53.1595 61.9552 52.1615V34.7412C61.9552 29.4612 57.6813 25.1948 52.4089 25.1948Z" fill="#1F37FF"/>
<path d="M17.4415 17.5809C17.4415 13.3832 14.0264 9.96802 9.82868 9.96802C5.631 9.96802 2.21582 13.3832 2.21582 17.5809C2.21582 21.779 5.631 25.1942 9.82868 25.1942C14.0264 25.1942 17.4415 21.779 17.4415 17.5809Z" fill="#1F37FF"/>
<path d="M60.0197 17.5809C60.0197 13.3832 56.6045 9.96802 52.4068 9.96802C48.2091 9.96802 44.7939 13.3832 44.7939 17.5809C44.7939 21.779 48.2091 25.1942 52.4068 25.1942C56.6045 25.1942 60.0197 21.779 60.0197 17.5809Z" fill="#1F37FF"/>
</svg>
