<svg width="62" height="62" viewBox="0 0 62 62" fill="none" xmlns="http://www.w3.org/2000/svg">
<path d="M30.8631 18.0142C27.1043 18.0142 24.0464 21.0721 24.0464 24.8309C24.0464 28.5899 27.1043 31.6479 30.8631 31.6479C34.621 31.6479 37.6782 28.5899 37.6782 24.8309C37.6781 21.0721 34.621 18.0142 30.8631 18.0142Z" fill="#1F37FF"/>
<path d="M61.7046 27.7063C61.7046 26.0346 60.4493 24.6269 58.7844 24.4322L55.2834 24.0229C54.7862 22.2378 54.0764 20.492 53.1701 18.8242L55.3252 16.1007C56.3603 14.7935 56.2546 12.9106 55.0771 11.7186L50.4562 7.098C49.8331 6.47523 49.006 6.13218 48.1269 6.13218C47.386 6.13218 46.6568 6.38698 46.0734 6.84947L43.4436 8.93389C41.717 7.9514 39.8698 7.17768 37.9428 6.62954L37.5453 3.21455C37.3491 1.54918 35.9411 0.293701 34.2701 0.293701H27.7169C26.0448 0.293701 24.6374 1.54918 24.4431 3.21455L24.045 6.62893C22.0691 7.18823 20.1693 7.99132 18.3886 9.01984L15.6513 6.84947C15.0712 6.38943 14.3443 6.13616 13.6047 6.13616C12.7262 6.13616 11.8972 6.4766 11.2677 7.09739L6.63703 11.7293C5.45389 12.9128 5.34683 14.7971 6.38774 16.112L8.69774 19.0339C7.80289 20.7048 7.10625 22.4683 6.62281 24.2863L2.93925 24.7066C1.27465 24.9023 0.0194723 26.3099 0.0194723 27.9803L0.0185547 34.5337C0.0197782 36.2049 1.27587 37.6124 2.94093 37.808L6.85681 38.2627C7.36457 39.9206 8.0372 41.5177 8.85986 43.0207L6.38881 46.1387C5.35325 47.4457 5.45924 49.329 6.63734 50.5219L11.2687 55.1528C11.8914 55.7756 12.7184 56.1186 13.5975 56.1186C14.3385 56.1186 15.0678 55.8638 15.6515 55.4013L18.745 52.9532C20.3218 53.8311 21.9902 54.5369 23.7148 55.0557L24.1792 59.0479C24.3749 60.7131 25.7827 61.9689 27.454 61.9689H34.0073C35.6782 61.9689 37.0857 60.7131 37.2815 59.0468L37.7241 55.2183C39.5803 54.7064 41.381 53.9784 43.0867 53.0502L46.0728 55.4128C46.6538 55.8727 47.3811 56.1261 48.1208 56.1261C48.9993 56.1261 49.828 55.7854 50.4563 55.1643L55.0881 50.5322C56.2712 49.3486 56.3778 47.4645 55.3368 46.1511L53.0196 43.2112C53.9664 41.521 54.7073 39.7522 55.2259 37.9431L58.7845 37.5341C60.4499 37.3376 61.7057 35.9295 61.7057 34.2586L61.7046 27.7063ZM23.8767 42.3601V47.1661C22.9374 46.7553 22.041 46.2645 21.196 45.7023L23.8767 42.3601ZM37.8467 42.3598L40.5276 45.7023C39.6826 46.2648 38.7859 46.7555 37.8467 47.1661V42.3598ZM38.2499 33.7203C37.7147 32.947 36.8329 32.4854 35.8909 32.4854C35.8571 32.4854 25.8657 32.4854 25.8325 32.4854C24.8909 32.4854 24.0089 32.947 23.4817 33.7091L17.1033 41.9209C14.7658 38.9467 13.3701 35.1987 13.3701 31.131C13.3701 21.486 21.2169 13.6392 30.862 13.6392C40.507 13.6392 48.3538 21.4861 48.3538 31.131C48.3538 35.1989 46.9581 38.9468 44.6204 41.921L38.2499 33.7203Z" fill="#1F37FF"/>
</svg>
