<svg width="52" height="63" viewBox="0 0 52 63" fill="none" xmlns="http://www.w3.org/2000/svg">
<path d="M19.2147 11.8625C20.2116 11.8625 21.0198 11.0543 21.0198 10.0575V2.32386C20.9244 -0.0710959 17.5041 -0.0692908 17.4097 2.32386V10.0576C17.4097 11.0545 18.2179 11.8625 19.2147 11.8625Z" fill="#1F37FF"/>
<path d="M10.2047 11.3349C10.9094 12.0397 12.0525 12.04 12.7574 11.3349C13.4624 10.63 13.4624 9.48711 12.7574 8.78218L10.8241 6.84883C10.1193 6.1439 8.97632 6.1439 8.27138 6.84883C7.56644 7.55377 7.56644 8.69662 8.27138 9.40155L10.2047 11.3349Z" fill="#1F37FF"/>
<path d="M28.225 11.3349L30.1583 9.40155C30.8633 8.69662 30.8633 7.55377 30.1583 6.84883C29.4535 6.1439 28.3105 6.1439 27.6056 6.84883L25.6723 8.78218C24.9673 9.48711 24.9673 10.63 25.6723 11.3349C26.377 12.0397 27.52 12.04 28.225 11.3349Z" fill="#1F37FF"/>
<path d="M41.0056 28.0901C42.0365 27.0594 42.0379 25.3893 41.0056 24.3573C39.9747 23.3264 38.305 23.3252 37.2728 24.3573L30.9872 30.6429C29.9581 31.672 29.9581 33.3467 30.9872 34.3758C32.0167 35.4044 33.6914 35.4046 34.7202 34.3758L41.0053 28.0907C41.0054 28.0903 41.0055 28.0902 41.0056 28.0901Z" fill="#1F37FF"/>
<path d="M41.0054 40.661L45.7197 35.9467H45.7198C46.7507 34.9159 46.7521 33.246 45.7198 32.2138C44.6891 31.183 43.0192 31.1814 41.9871 32.2138L37.2725 36.9283C36.2436 37.9572 36.2439 39.6318 37.2729 40.6615C38.3034 41.6918 39.9732 41.693 41.0054 40.661Z" fill="#1F37FF"/>
<path d="M50.4347 40.0713C49.4131 39.0498 47.7425 39.0301 46.702 40.0705L43.5594 43.2132C42.527 44.2457 42.5286 45.9155 43.5588 46.9457C44.6021 47.9905 46.2756 47.963 47.2908 46.9466L50.4338 43.8035L50.4348 43.8025C51.4516 42.787 51.4779 41.1132 50.4347 40.0713Z" fill="#1F37FF"/>
<path d="M39.176 45.0798C39.176 45.0677 39.1768 45.0556 39.1768 45.0435C37.4955 45.056 35.9087 44.4023 34.7202 43.214C33.4921 41.9851 32.8839 40.3681 32.8941 38.7545C31.2786 38.7668 29.6641 38.1558 28.435 36.9288C25.9979 34.4917 25.9979 30.5268 28.4347 28.0901L45.7203 10.8055C46.7057 9.81876 46.7882 8.13909 45.7273 7.07819C44.8441 6.19515 43.1684 5.89166 41.9876 7.07265L19.6937 29.3664L19.9885 29.6612C25.0245 34.6972 25.0245 42.8914 19.9885 47.9274C19.2836 48.6324 18.1405 48.6322 17.4358 47.9274C16.7309 47.2226 16.7309 46.0796 17.4358 45.3747C21.0641 41.7462 21.0641 35.8424 17.4358 32.2139C17.4358 32.2139 15.864 30.6412 15.8638 30.6408C15.6294 30.4059 15.4595 30.1074 15.3822 29.7726L13.3166 20.8222C12.6807 18.0658 9.76284 16.4681 7.08677 17.4502C6.37522 17.7113 5.90277 18.3896 5.90349 19.1474L5.92816 44.6863L1.28554 49.3269C0.580602 50.0318 0.580602 51.1747 1.28554 51.8796L11.0088 61.6029C11.3473 61.9414 11.8064 62.1315 12.2852 62.1315H30.0933C31.3909 62.1315 32.6116 61.6255 33.5303 60.7069L43.2837 50.9539C42.4369 50.6458 41.6606 50.154 41.0051 49.4975C39.8258 48.3184 39.176 46.7491 39.176 45.0798Z" fill="#1F37FF"/>
</svg>
