<svg width="26" height="18" viewBox="0 0 26 18" fill="none" xmlns="http://www.w3.org/2000/svg">
<path d="M24.3446 16.8356H1.65279C1.29212 16.8356 1.00098 16.5445 1.00098 16.1838V1.38765C1.00098 1.02698 1.29212 0.73584 1.65279 0.73584H24.3446C24.7053 0.73584 24.9964 1.02698 24.9964 1.38765V16.1838C24.9964 16.5445 24.7053 16.8356 24.3446 16.8356ZM2.3046 15.532H23.6928V2.03947H2.3046V15.532Z" fill="#181818"/>
<path d="M12.9987 10.5951C11.8906 10.5951 10.7782 10.2084 9.89173 9.43925L1.22261 1.87821C0.95319 1.64356 0.922772 1.23074 1.16177 0.956981C1.39642 0.687565 1.80924 0.657147 2.083 0.896145L10.7521 8.45719C12.034 9.57396 13.9677 9.57396 15.2496 8.45719L23.9188 0.896145C24.1925 0.661492 24.601 0.687565 24.84 0.956981C25.0746 1.2264 25.0486 1.63921 24.7792 1.87821L16.11 9.43925C15.2192 10.2127 14.1068 10.5951 12.9987 10.5951Z" fill="#181818"/>
<path d="M1.65261 16.8345C1.46576 16.8345 1.2789 16.7563 1.15288 16.5998C0.922577 16.3217 0.957341 15.9132 1.23545 15.6829L9.90457 8.44781C10.1827 8.2175 10.5911 8.25226 10.8215 8.53037C11.0518 8.80848 11.017 9.21695 10.7389 9.44725L2.06977 16.6824C1.9481 16.7823 1.80035 16.8345 1.65261 16.8345Z" fill="#181818"/>
<path d="M24.3447 16.8345C24.1969 16.8345 24.0492 16.7867 23.9275 16.6824L15.2584 9.44725C14.9803 9.21695 14.9455 8.80413 15.1758 8.53037C15.4061 8.25226 15.819 8.2175 16.0927 8.44781L24.7618 15.6829C25.0399 15.9132 25.0747 16.3261 24.8444 16.5998C24.7184 16.7563 24.5315 16.8345 24.3447 16.8345Z" fill="#181818"/>
</svg>
