<svg width="16" height="16" viewBox="0 0 16 16" fill="none" xmlns="http://www.w3.org/2000/svg">
<path d="M12.8 0.200012H3.19996C1.53328 0.200012 0.199951 1.53334 0.199951 3.20002V12.8C0.199951 14.4667 1.53328 15.8 3.19996 15.8H12.8C14.4666 15.8 15.8 14.4667 15.8 12.8V3.20001C15.8 1.53334 14.4666 0.200012 12.8 0.200012ZM13.6666 2.00001H14V4.66667H11.3333V2.00001H13.6666ZM5.79997 6.40002C6.26663 5.73335 7.1333 5.26668 7.99997 5.26668C8.86664 5.26668 9.73331 5.73335 10.2 6.40002C10.5333 6.86668 10.7333 7.40001 10.7333 8.00002C10.7333 9.53334 9.46663 10.7333 7.99997 10.7333C6.5333 10.7333 5.26664 9.53335 5.26664 8.00002C5.26663 7.40001 5.46663 6.86668 5.79997 6.40002ZM14.2666 12.8C14.2666 13.6 13.6 14.2667 12.8 14.2667H3.19996C2.39996 14.2667 1.73329 13.6 1.73329 12.8V6.40002H4.06662C3.86661 6.86668 3.73329 7.46669 3.73329 8.00002C3.73329 10.3334 5.66663 12.2667 7.99996 12.2667C10.3333 12.2667 12.2666 10.3334 12.2666 8.00002C12.2666 7.46669 12.1333 6.86667 11.9333 6.40002H14.2666L14.2666 12.8Z" fill="white"/>
</svg>
