<svg width="16" height="16" viewBox="0 0 16 16" fill="none" xmlns="http://www.w3.org/2000/svg">
<path d="M8.00261 0C4.66268 0 3.68588 0.00344645 3.49601 0.0192016C2.8106 0.0761911 2.3841 0.184139 1.91945 0.415543C1.56136 0.593404 1.27895 0.799575 1.00024 1.08858C0.492639 1.61564 0.185005 2.26407 0.0736409 3.03484C0.0194972 3.40903 0.0037463 3.48534 0.000546906 5.39664C-0.000683632 6.03374 0.000546906 6.87221 0.000546906 7.99686C0.000546906 11.335 0.00423852 12.3111 0.0202355 12.5006C0.0756097 13.1678 0.180205 13.5875 0.401702 14.0466C0.825007 14.9254 1.63347 15.5852 2.58591 15.8314C2.91569 15.9163 3.27993 15.9631 3.74753 15.9852C3.94565 15.9938 5.96496 16 7.98551 16C10.006 16 12.0266 15.9975 12.2198 15.9877C12.7612 15.9622 13.0756 15.92 13.4233 15.8301C13.8955 15.709 14.3356 15.4862 14.7129 15.1773C15.0902 14.8684 15.3954 14.4808 15.6075 14.0417C15.8246 13.5936 15.9348 13.1579 15.9846 12.5256C15.9954 12.3878 16 10.1898 16 7.99477C16 5.79938 15.9951 3.60547 15.9842 3.46762C15.9338 2.8251 15.8237 2.39306 15.5995 1.93641C15.4155 1.56259 15.2112 1.28343 14.9147 0.997992C14.3855 0.492349 13.7383 0.184631 12.9668 0.0733601C12.5931 0.0193247 12.5187 0.00332336 10.6064 0H8.00261Z" fill="url(#paint0_radial_2_54)"/>
<path d="M8.00261 0C4.66268 0 3.68588 0.00344645 3.49601 0.0192016C2.8106 0.0761911 2.3841 0.184139 1.91945 0.415543C1.56136 0.593404 1.27895 0.799575 1.00024 1.08858C0.492639 1.61564 0.185005 2.26407 0.0736409 3.03484C0.0194972 3.40903 0.0037463 3.48534 0.000546906 5.39664C-0.000683632 6.03374 0.000546906 6.87221 0.000546906 7.99686C0.000546906 11.335 0.00423852 12.3111 0.0202355 12.5006C0.0756097 13.1678 0.180205 13.5875 0.401702 14.0466C0.825007 14.9254 1.63347 15.5852 2.58591 15.8314C2.91569 15.9163 3.27993 15.9631 3.74753 15.9852C3.94565 15.9938 5.96496 16 7.98551 16C10.006 16 12.0266 15.9975 12.2198 15.9877C12.7612 15.9622 13.0756 15.92 13.4233 15.8301C13.8955 15.709 14.3356 15.4862 14.7129 15.1773C15.0902 14.8684 15.3954 14.4808 15.6075 14.0417C15.8246 13.5936 15.9348 13.1579 15.9846 12.5256C15.9954 12.3878 16 10.1898 16 7.99477C16 5.79938 15.9951 3.60547 15.9842 3.46762C15.9338 2.8251 15.8237 2.39306 15.5995 1.93641C15.4155 1.56259 15.2112 1.28343 14.9147 0.997992C14.3855 0.492349 13.7383 0.184631 12.9668 0.0733601C12.5931 0.0193247 12.5187 0.00332336 10.6064 0H8.00261Z" fill="url(#paint1_radial_2_54)"/>
<path d="M7.99894 2.09245C6.39481 2.09245 6.19349 2.09946 5.56345 2.12814C4.93465 2.15694 4.50544 2.25652 4.12988 2.40263C3.7414 2.55353 3.41186 2.75539 3.08355 3.08391C2.75499 3.41231 2.55319 3.74194 2.40183 4.1304C2.2554 4.50619 2.15572 4.93564 2.12742 5.56437C2.09936 6.19457 2.09198 6.39607 2.09198 8.00063C2.09198 9.6052 2.09912 9.80595 2.12767 10.4362C2.15658 11.0651 2.25613 11.4945 2.40208 11.8701C2.55306 12.2587 2.75487 12.5883 3.0833 12.9167C3.41149 13.2454 3.74103 13.4477 4.12926 13.5986C4.50507 13.7447 4.9344 13.8443 5.56309 13.8731C6.19312 13.9018 6.39432 13.9088 7.99832 13.9088C9.60258 13.9088 9.80328 13.9018 10.4333 13.8731C11.0621 13.8443 11.4918 13.7447 11.8676 13.5986C12.256 13.4477 12.585 13.2454 12.9132 12.9167C13.2418 12.5883 13.4436 12.2587 13.5949 11.8703C13.7401 11.4945 13.8398 11.065 13.8694 10.4363C13.8977 9.80608 13.905 9.6052 13.905 8.00063C13.905 6.39607 13.8977 6.1947 13.8694 5.56449C13.8398 4.93551 13.7401 4.50619 13.5949 4.13052C13.4436 3.74194 13.2418 3.41231 12.9132 3.08391C12.5847 2.75527 12.2561 2.55341 11.8673 2.40263C11.4907 2.25652 11.0613 2.15694 10.4325 2.12814C9.80242 2.09946 9.60184 2.09245 7.99722 2.09245H7.99894ZM7.46907 3.15715C7.62633 3.1569 7.80181 3.15715 7.99894 3.15715C9.576 3.15715 9.76292 3.16281 10.3857 3.19112C10.9616 3.21746 11.2741 3.31372 11.4823 3.39459C11.758 3.50167 11.9545 3.62968 12.1611 3.83647C12.3678 4.04326 12.4958 4.24019 12.6031 4.51591C12.684 4.72393 12.7803 5.03657 12.8065 5.61262C12.8348 6.23544 12.841 6.42253 12.841 7.99928C12.841 9.57603 12.8348 9.76312 12.8065 10.3859C12.7802 10.962 12.684 11.2746 12.6031 11.4826C12.4961 11.7584 12.3678 11.9547 12.1611 12.1614C11.9544 12.3681 11.7581 12.4961 11.4823 12.6032C11.2744 12.6845 10.9616 12.7805 10.3857 12.8068C9.76304 12.8351 9.576 12.8413 7.99894 12.8413C6.42176 12.8413 6.23484 12.8351 5.61218 12.8068C5.03629 12.7802 4.72373 12.684 4.5154 12.6031C4.23976 12.496 4.04288 12.368 3.83615 12.1612C3.62942 11.9544 3.50144 11.758 3.39414 11.4822C3.31329 11.2741 3.21694 10.9615 3.19073 10.3854C3.16243 9.76263 3.15677 9.57553 3.15677 7.9978C3.15677 6.42007 3.16243 6.23396 3.19073 5.61114C3.21706 5.03509 3.31329 4.72245 3.39414 4.51419C3.50119 4.23847 3.62942 4.04153 3.83615 3.83475C4.04288 3.62796 4.23976 3.49995 4.5154 3.39262C4.72361 3.31138 5.03629 3.21537 5.61218 3.18891C6.15707 3.16429 6.36823 3.1569 7.46907 3.15567V3.15715ZM11.1518 4.13816C11.0116 4.13816 10.8746 4.17974 10.758 4.25766C10.6415 4.33557 10.5506 4.44632 10.497 4.57588C10.4433 4.70544 10.4293 4.84801 10.4567 4.98554C10.484 5.12308 10.5516 5.24941 10.6507 5.34855C10.7499 5.4477 10.8762 5.5152 11.0137 5.54253C11.1512 5.56986 11.2937 5.55578 11.4232 5.50208C11.5527 5.44838 11.6634 5.35747 11.7413 5.24085C11.8191 5.12422 11.8607 4.98713 11.8606 4.84689C11.8606 4.45547 11.5431 4.13791 11.1518 4.13791V4.13816ZM7.99894 4.96653C6.3238 4.96653 4.96566 6.32505 4.96566 8.00063C4.96566 9.67622 6.3238 11.0341 7.99894 11.0341C9.67407 11.0341 11.0318 9.67622 11.0318 8.00063C11.0318 6.32505 9.67395 4.96653 7.99882 4.96653H7.99894ZM7.99894 6.03124C9.08624 6.03124 9.9678 6.91291 9.9678 8.00063C9.9678 9.08823 9.08624 9.97003 7.99894 9.97003C6.91151 9.97003 6.03008 9.08823 6.03008 8.00063C6.03008 6.91291 6.91151 6.03124 7.99894 6.03124Z" fill="white"/>
<defs>
<radialGradient id="paint0_radial_2_54" cx="0" cy="0" r="1" gradientUnits="userSpaceOnUse" gradientTransform="translate(4.25002 17.2323) rotate(-90) scale(15.8572 14.7484)">
<stop stop-color="#FFDD55"/>
<stop offset="0.1" stop-color="#FFDD55"/>
<stop offset="0.5" stop-color="#FF543E"/>
<stop offset="1" stop-color="#C837AB"/>
</radialGradient>
<radialGradient id="paint1_radial_2_54" cx="0" cy="0" r="1" gradientUnits="userSpaceOnUse" gradientTransform="translate(-2.68008 1.15261) rotate(78.6806) scale(7.08823 29.218)">
<stop stop-color="#3771C8"/>
<stop offset="0.128" stop-color="#3771C8"/>
<stop offset="1" stop-color="#6600FF" stop-opacity="0"/>
</radialGradient>
</defs>
</svg>
