<svg width="40" height="40" viewBox="0 0 40 40" fill="none" xmlns="http://www.w3.org/2000/svg">
<circle cx="20" cy="20" r="20" fill="#3A86FF"/>
<path d="M16.5078 25H14.1641V13.625H16.5078V25ZM18.2109 20.7109C18.2109 19.4141 18.5182 18.3698 19.1328 17.5781C19.7526 16.7865 20.5859 16.3906 21.6328 16.3906C22.5599 16.3906 23.2812 16.7083 23.7969 17.3438L23.8906 16.5469H25.9375V24.7188C25.9375 25.4583 25.7682 26.1016 25.4297 26.6484C25.0964 27.1953 24.625 27.612 24.0156 27.8984C23.4062 28.1849 22.6927 28.3281 21.875 28.3281C21.2552 28.3281 20.651 28.2031 20.0625 27.9531C19.474 27.7083 19.0286 27.3906 18.7266 27L19.7266 25.625C20.2891 26.2552 20.9714 26.5703 21.7734 26.5703C22.3724 26.5703 22.8385 26.4089 23.1719 26.0859C23.5052 25.7682 23.6719 25.3151 23.6719 24.7266V24.2734C23.151 24.862 22.4661 25.1562 21.6172 25.1562C20.6016 25.1562 19.7786 24.7604 19.1484 23.9688C18.5234 23.1719 18.2109 22.1172 18.2109 20.8047V20.7109ZM20.4688 20.875C20.4688 21.6406 20.6224 22.2422 20.9297 22.6797C21.237 23.112 21.6589 23.3281 22.1953 23.3281C22.8828 23.3281 23.375 23.0703 23.6719 22.5547V19C23.3698 18.4844 22.8828 18.2266 22.2109 18.2266C21.6693 18.2266 21.2422 18.4479 20.9297 18.8906C20.6224 19.3333 20.4688 19.9948 20.4688 20.875Z" fill="white"/>
</svg>
