<svg width="26" height="26" viewBox="0 0 26 26" fill="none" xmlns="http://www.w3.org/2000/svg">
<g clip-path="url(#clip0_22_237)">
<path d="M13 25.9995C20.1797 25.9995 26 20.1792 26 12.9995C26 5.81981 20.1797 -0.000488281 13 -0.000488281C5.8203 -0.000488281 0 5.81981 0 12.9995C0 20.1792 5.8203 25.9995 13 25.9995Z" fill="white"/>
<path d="M20.7677 14.0459V19.4055H17.6603V14.4051C17.6603 13.1495 17.2116 12.2921 16.0866 12.2921C15.228 12.2921 14.7179 12.8694 14.4927 13.4283C14.4109 13.6281 14.3898 13.9055 14.3898 14.1856V19.4053H11.2822C11.2822 19.4053 11.3239 10.9362 11.2822 10.0595H14.39V11.3839C14.3838 11.3943 14.3749 11.4045 14.3694 11.4145H14.39V11.3839C14.803 10.7485 15.5394 9.84008 17.1906 9.84008C19.2349 9.84008 20.7677 11.1758 20.7677 14.0459ZM8.03137 5.55457C6.96839 5.55457 6.27295 6.25233 6.27295 7.16908C6.27295 8.06637 6.94823 8.78429 7.99059 8.78429H8.01075C9.09458 8.78429 9.76847 8.06637 9.76847 7.16908C9.74785 6.25233 9.09458 5.55457 8.03137 5.55457ZM6.45764 19.4055H9.56408V10.0595H6.45764V19.4055Z" fill="black"/>
</g>
<defs>
<clipPath id="clip0_22_237">
<rect width="26" height="26" fill="white"/>
</clipPath>
</defs>
</svg>
