<svg width="24" height="23" viewBox="0 0 24 23" fill="none" xmlns="http://www.w3.org/2000/svg">
<g clip-path="url(#clip0_0_62)">
<path d="M0 2.61363C0 1.85604 0.267463 1.23104 0.802365 0.738635C1.33727 0.246204 2.03267 0 2.88851 0C3.72909 0 4.40918 0.242409 4.92881 0.727272C5.46371 1.22727 5.73118 1.87877 5.73118 2.68181C5.73118 3.40909 5.47137 4.01513 4.95174 4.49999C4.41684 4.99999 3.7138 5.24999 2.84266 5.24999H2.81974C1.97916 5.24999 1.29907 4.99999 0.77944 4.49999C0.259806 3.99999 0 3.3712 0 2.61363ZM0.298021 22.5V7.31817H5.38731V22.5H0.298021ZM8.20705 22.5H13.2963V14.0227C13.2963 13.4924 13.3575 13.0833 13.4797 12.7954C13.6937 12.2803 14.0185 11.8447 14.454 11.4886C14.8896 11.1326 15.436 10.9545 16.0931 10.9545C17.8049 10.9545 18.6607 12.0985 18.6607 14.3863V22.5H23.75V13.7954C23.75 11.553 23.2151 9.85226 22.1453 8.69317C21.0754 7.53408 19.6618 6.95453 17.9042 6.95453C15.9327 6.95453 14.3967 7.79544 13.2963 9.47726V9.52271H13.2734L13.2963 9.47726V7.31817H8.20705C8.23761 7.80301 8.2529 9.31058 8.2529 11.8409C8.2529 14.3712 8.23761 17.9242 8.20705 22.5Z" fill="#464646"/>
</g>
<defs>
<clipPath id="clip0_0_62">
<rect width="23.75" height="22.5" fill="white"/>
</clipPath>
</defs>
</svg>
