<svg width="143" height="56" viewBox="0 0 143 56" fill="none" xmlns="http://www.w3.org/2000/svg">
<g clip-path="url(#clip0_1_814)">
<path d="M19.9031 12.7239C17.2684 12.7241 14.7417 13.7898 12.8787 15.6867C11.0156 17.5836 9.96893 20.1563 9.96875 22.8389V23.0769H0V43.3909H20.2125V32.9469C22.8232 32.8705 25.2993 31.7503 27.1048 29.8288C28.9103 27.9072 29.8998 25.3389 29.8591 22.68C29.8184 20.021 28.7508 17.4854 26.8875 15.622C25.0241 13.7586 22.5149 12.7174 19.9031 12.7239ZM3.4375 39.8909V26.5769H9.96875V32.9539H16.775V39.8909H3.4375ZM20.2125 29.4469C20.1094 29.4539 20.0063 29.4539 19.9031 29.4539H13.4062V22.8389C13.4063 21.544 13.7797 20.2776 14.48 19.1968C15.1803 18.1159 16.1768 17.2681 17.3459 16.7584C18.515 16.2487 19.8053 16.0996 21.0569 16.3296C22.3084 16.5595 23.4662 17.1584 24.3866 18.052C25.307 18.9456 25.9496 20.0946 26.2347 21.3565C26.5197 22.6184 26.4348 23.9378 25.9904 25.1511C25.546 26.3643 24.7616 27.4181 23.7345 28.1817C22.7074 28.9453 21.4828 29.3852 20.2125 29.4469Z" fill="#3A86FF"/>
<path d="M44.952 29.616C44.8773 29.5413 44.7387 29.44 44.536 29.312C44.344 29.184 44.104 29.0613 43.816 28.944C43.5387 28.816 43.2347 28.7093 42.904 28.624C42.5733 28.5387 42.2373 28.496 41.896 28.496C41.288 28.496 40.8347 28.608 40.536 28.832C40.2373 29.056 40.088 29.3707 40.088 29.776C40.088 30.0107 40.1413 30.208 40.248 30.368C40.3653 30.5173 40.5307 30.6507 40.744 30.768C40.9573 30.8853 41.224 30.992 41.544 31.088C41.8747 31.184 42.2533 31.2853 42.68 31.392C43.2347 31.5413 43.736 31.7013 44.184 31.872C44.6427 32.0427 45.0267 32.256 45.336 32.512C45.656 32.768 45.9013 33.0773 46.072 33.44C46.2427 33.792 46.328 34.2293 46.328 34.752C46.328 35.36 46.2107 35.8827 45.976 36.32C45.752 36.7467 45.4427 37.0933 45.048 37.36C44.664 37.6267 44.216 37.824 43.704 37.952C43.2027 38.0693 42.6747 38.128 42.12 38.128C41.2667 38.128 40.424 38 39.592 37.744C38.76 37.488 38.0133 37.1253 37.352 36.656L38.328 34.752C38.424 34.848 38.5947 34.976 38.84 35.136C39.096 35.2853 39.3947 35.44 39.736 35.6C40.0773 35.7493 40.456 35.8773 40.872 35.984C41.288 36.0907 41.7147 36.144 42.152 36.144C43.368 36.144 43.976 35.7547 43.976 34.976C43.976 34.7307 43.9067 34.5227 43.768 34.352C43.6293 34.1813 43.432 34.032 43.176 33.904C42.92 33.776 42.6107 33.6587 42.248 33.552C41.8853 33.4453 41.48 33.328 41.032 33.2C40.488 33.0507 40.0133 32.8907 39.608 32.72C39.2133 32.5387 38.8827 32.3307 38.616 32.096C38.3493 31.8507 38.1467 31.5733 38.008 31.264C37.88 30.944 37.816 30.5653 37.816 30.128C37.816 29.552 37.9227 29.04 38.136 28.592C38.3493 28.144 38.6427 27.7707 39.016 27.472C39.4 27.1733 39.8427 26.9493 40.344 26.8C40.8453 26.64 41.384 26.56 41.96 26.56C42.76 26.56 43.496 26.688 44.168 26.944C44.84 27.1893 45.4267 27.4827 45.928 27.824L44.952 29.616ZM50.0765 38.16C49.6712 38.16 49.2925 38.096 48.9405 37.968C48.5885 37.8293 48.2845 37.6427 48.0285 37.408C47.7725 37.1627 47.5698 36.88 47.4205 36.56C47.2818 36.24 47.2125 35.888 47.2125 35.504C47.2125 35.1093 47.2978 34.7467 47.4685 34.416C47.6498 34.0747 47.8952 33.7867 48.2045 33.552C48.5245 33.3173 48.9032 33.136 49.3405 33.008C49.7778 32.8693 50.2578 32.8 50.7805 32.8C51.1538 32.8 51.5165 32.832 51.8685 32.896C52.2312 32.96 52.5512 33.0507 52.8285 33.168V32.688C52.8285 32.1333 52.6685 31.7067 52.3485 31.408C52.0392 31.1093 51.5752 30.96 50.9565 30.96C50.5085 30.96 50.0712 31.04 49.6445 31.2C49.2178 31.36 48.7805 31.5947 48.3325 31.904L47.6765 30.544C48.7538 29.8293 49.9165 29.472 51.1645 29.472C52.3698 29.472 53.3032 29.7707 53.9645 30.368C54.6365 30.9547 54.9725 31.808 54.9725 32.928V35.536C54.9725 35.76 55.0098 35.92 55.0845 36.016C55.1698 36.112 55.3032 36.1653 55.4845 36.176V38C55.1218 38.0747 54.8072 38.112 54.5405 38.112C54.1352 38.112 53.8205 38.0213 53.5965 37.84C53.3832 37.6587 53.2498 37.4187 53.1965 37.12L53.1485 36.656C52.7752 37.1467 52.3218 37.52 51.7885 37.776C51.2552 38.032 50.6845 38.16 50.0765 38.16ZM50.6845 36.592C51.0472 36.592 51.3885 36.528 51.7085 36.4C52.0392 36.272 52.2952 36.1013 52.4765 35.888C52.7112 35.7067 52.8285 35.504 52.8285 35.28V34.32C52.5725 34.224 52.2952 34.1493 51.9965 34.096C51.6978 34.032 51.4098 34 51.1325 34C50.5778 34 50.1245 34.128 49.7725 34.384C49.4205 34.6293 49.2445 34.944 49.2445 35.328C49.2445 35.6907 49.3832 35.9947 49.6605 36.24C49.9378 36.4747 50.2792 36.592 50.6845 36.592ZM61.9375 37.568C61.6495 37.696 61.2975 37.824 60.8815 37.952C60.4655 38.08 60.0282 38.144 59.5695 38.144C59.2708 38.144 58.9882 38.1067 58.7215 38.032C58.4655 37.9573 58.2362 37.84 58.0335 37.68C57.8415 37.5093 57.6868 37.296 57.5695 37.04C57.4522 36.7733 57.3935 36.4533 57.3935 36.08V31.264H56.2895V29.616H57.3935V26.896H59.5375V29.616H61.2975V31.264H59.5375V35.36C59.5375 35.6587 59.6122 35.872 59.7615 36C59.9215 36.1173 60.1135 36.176 60.3375 36.176C60.5615 36.176 60.7802 36.1387 60.9935 36.064C61.2068 35.9893 61.3775 35.9253 61.5055 35.872L61.9375 37.568ZM63.2301 39.632C63.4115 39.6853 63.5875 39.7227 63.7581 39.744C63.9288 39.776 64.0728 39.792 64.1901 39.792C64.3288 39.792 64.4568 39.7653 64.5741 39.712C64.6915 39.6587 64.7981 39.5627 64.8941 39.424C64.9901 39.296 65.0861 39.1147 65.1821 38.88C65.2781 38.6453 65.3795 38.352 65.4861 38L62.1741 29.616H64.3821L66.6541 36.144L68.6701 29.616H70.6861L67.1661 39.664C66.9635 40.2507 66.6168 40.7307 66.1261 41.104C65.6355 41.4773 65.0275 41.664 64.3021 41.664C64.1315 41.664 63.9555 41.648 63.7741 41.616C63.6035 41.5947 63.4221 41.552 63.2301 41.488V39.632ZM73.9359 38.16C73.5305 38.16 73.1519 38.096 72.7999 37.968C72.4479 37.8293 72.1439 37.6427 71.8879 37.408C71.6319 37.1627 71.4292 36.88 71.2799 36.56C71.1412 36.24 71.0719 35.888 71.0719 35.504C71.0719 35.1093 71.1572 34.7467 71.3279 34.416C71.5092 34.0747 71.7545 33.7867 72.0639 33.552C72.3839 33.3173 72.7625 33.136 73.1999 33.008C73.6372 32.8693 74.1172 32.8 74.6399 32.8C75.0132 32.8 75.3759 32.832 75.7279 32.896C76.0905 32.96 76.4105 33.0507 76.6879 33.168V32.688C76.6879 32.1333 76.5279 31.7067 76.2079 31.408C75.8985 31.1093 75.4345 30.96 74.8159 30.96C74.3679 30.96 73.9305 31.04 73.5039 31.2C73.0772 31.36 72.6399 31.5947 72.1919 31.904L71.5359 30.544C72.6132 29.8293 73.7759 29.472 75.0239 29.472C76.2292 29.472 77.1625 29.7707 77.8239 30.368C78.4959 30.9547 78.8319 31.808 78.8319 32.928V35.536C78.8319 35.76 78.8692 35.92 78.9439 36.016C79.0292 36.112 79.1625 36.1653 79.3439 36.176V38C78.9812 38.0747 78.6665 38.112 78.3999 38.112C77.9945 38.112 77.6799 38.0213 77.4559 37.84C77.2425 37.6587 77.1092 37.4187 77.0559 37.12L77.0079 36.656C76.6345 37.1467 76.1812 37.52 75.6479 37.776C75.1145 38.032 74.5439 38.16 73.9359 38.16ZM74.5439 36.592C74.9065 36.592 75.2479 36.528 75.5679 36.4C75.8985 36.272 76.1545 36.1013 76.3359 35.888C76.5705 35.7067 76.6879 35.504 76.6879 35.28V34.32C76.4319 34.224 76.1545 34.1493 75.8559 34.096C75.5572 34.032 75.2692 34 74.9919 34C74.4372 34 73.9839 34.128 73.6319 34.384C73.2799 34.6293 73.1039 34.944 73.1039 35.328C73.1039 35.6907 73.2425 35.9947 73.5199 36.24C73.7972 36.4747 74.1385 36.592 74.5439 36.592ZM93.8594 38H91.7154V33.296C91.7154 32.624 91.598 32.1333 91.3634 31.824C91.1394 31.5147 90.8247 31.36 90.4194 31.36C89.9927 31.36 89.5927 31.5253 89.2194 31.856C88.846 32.176 88.5794 32.5973 88.4194 33.12V38H86.2754V33.296C86.2754 32.624 86.158 32.1333 85.9234 31.824C85.6994 31.5147 85.3847 31.36 84.9794 31.36C84.5634 31.36 84.1634 31.52 83.7794 31.84C83.406 32.16 83.1394 32.5813 82.9794 33.104V38H80.8354V29.616H82.7714V31.168C83.0807 30.624 83.502 30.208 84.0354 29.92C84.5794 29.6213 85.198 29.472 85.8914 29.472C86.5954 29.472 87.1394 29.6427 87.5234 29.984C87.9074 30.3253 88.1527 30.7467 88.2594 31.248C88.6007 30.672 89.0327 30.2347 89.5554 29.936C90.078 29.6267 90.6754 29.472 91.3474 29.472C91.8594 29.472 92.2807 29.568 92.6114 29.76C92.942 29.952 93.198 30.2027 93.3794 30.512C93.5607 30.8213 93.6834 31.1733 93.7474 31.568C93.822 31.9627 93.8594 32.3627 93.8594 32.768V38ZM98.894 38.16C98.19 38.16 97.502 38.048 96.83 37.824C96.158 37.6 95.582 37.28 95.102 36.864L95.902 35.52C96.414 35.8827 96.91 36.16 97.39 36.352C97.8807 36.5333 98.366 36.624 98.846 36.624C99.2727 36.624 99.6087 36.544 99.854 36.384C100.099 36.224 100.222 35.9947 100.222 35.696C100.222 35.3973 100.078 35.1787 99.79 35.04C99.502 34.9013 99.0327 34.7413 98.382 34.56C97.838 34.4107 97.374 34.2667 96.99 34.128C96.606 33.9893 96.2967 33.8347 96.062 33.664C95.8273 33.4827 95.6567 33.28 95.55 33.056C95.4433 32.8213 95.39 32.544 95.39 32.224C95.39 31.7973 95.47 31.4133 95.63 31.072C95.8007 30.7307 96.0353 30.4427 96.334 30.208C96.6327 29.9627 96.9793 29.776 97.374 29.648C97.7793 29.52 98.2167 29.456 98.686 29.456C99.3153 29.456 99.902 29.5467 100.446 29.728C101.001 29.9093 101.507 30.2027 101.966 30.608L101.102 31.904C100.675 31.584 100.259 31.3493 99.854 31.2C99.4593 31.0507 99.0647 30.976 98.67 30.976C98.3073 30.976 98.0033 31.0507 97.758 31.2C97.5127 31.3493 97.39 31.5893 97.39 31.92C97.39 32.0693 97.4167 32.192 97.47 32.288C97.534 32.384 97.63 32.4693 97.758 32.544C97.886 32.6187 98.0513 32.6933 98.254 32.768C98.4673 32.832 98.7287 32.9013 99.038 32.976C99.614 33.1253 100.105 33.2747 100.51 33.424C100.926 33.5733 101.262 33.744 101.518 33.936C101.785 34.128 101.977 34.352 102.094 34.608C102.222 34.8533 102.286 35.152 102.286 35.504C102.286 36.3253 101.982 36.976 101.374 37.456C100.766 37.9253 99.9393 38.16 98.894 38.16ZM108.703 37.568C108.415 37.696 108.063 37.824 107.647 37.952C107.231 38.08 106.794 38.144 106.335 38.144C106.036 38.144 105.754 38.1067 105.487 38.032C105.231 37.9573 105.002 37.84 104.799 37.68C104.607 37.5093 104.452 37.296 104.335 37.04C104.218 36.7733 104.159 36.4533 104.159 36.08V31.264H103.055V29.616H104.159V26.896H106.303V29.616H108.063V31.264H106.303V35.36C106.303 35.6587 106.378 35.872 106.527 36C106.687 36.1173 106.879 36.176 107.103 36.176C107.327 36.176 107.546 36.1387 107.759 36.064C107.972 35.9893 108.143 35.9253 108.271 35.872L108.703 37.568ZM112.38 38.16C111.516 38.16 110.86 37.8827 110.412 37.328C109.964 36.7733 109.74 35.952 109.74 34.864V29.616H111.884V34.4C111.884 35.6907 112.348 36.336 113.276 36.336C113.692 36.336 114.092 36.2133 114.476 35.968C114.87 35.712 115.19 35.328 115.436 34.816V29.616H117.58V35.536C117.58 35.76 117.617 35.92 117.692 36.016C117.777 36.112 117.91 36.1653 118.092 36.176V38C117.878 38.0427 117.697 38.0693 117.548 38.08C117.409 38.0907 117.281 38.096 117.164 38.096C116.78 38.096 116.465 38.0107 116.22 37.84C115.985 37.6587 115.846 37.4133 115.804 37.104L115.756 36.432C115.382 37.008 114.902 37.44 114.316 37.728C113.729 38.016 113.084 38.16 112.38 38.16ZM123.182 38.16C122.606 38.16 122.073 38.048 121.582 37.824C121.092 37.6 120.67 37.2907 120.318 36.896C119.966 36.5013 119.689 36.0427 119.486 35.52C119.294 34.9867 119.198 34.416 119.198 33.808C119.198 33.2 119.289 32.6347 119.47 32.112C119.662 31.5893 119.924 31.1307 120.254 30.736C120.585 30.3413 120.98 30.032 121.438 29.808C121.897 29.584 122.398 29.472 122.942 29.472C123.561 29.472 124.116 29.6213 124.606 29.92C125.108 30.2187 125.497 30.608 125.774 31.088V26.32H127.918V35.536C127.918 35.76 127.956 35.92 128.03 36.016C128.105 36.112 128.233 36.1653 128.414 36.176V38C128.041 38.0747 127.737 38.112 127.502 38.112C127.118 38.112 126.804 38.016 126.558 37.824C126.313 37.632 126.174 37.3813 126.142 37.072L126.094 36.544C125.785 37.0773 125.364 37.4827 124.83 37.76C124.308 38.0267 123.758 38.16 123.182 38.16ZM123.742 36.336C123.945 36.336 124.153 36.304 124.366 36.24C124.58 36.1653 124.777 36.064 124.958 35.936C125.14 35.808 125.3 35.6587 125.438 35.488C125.588 35.3173 125.7 35.1307 125.774 34.928V32.928C125.689 32.6933 125.566 32.48 125.406 32.288C125.257 32.0853 125.081 31.9147 124.878 31.776C124.686 31.6267 124.478 31.5093 124.254 31.424C124.041 31.3387 123.828 31.296 123.614 31.296C123.294 31.296 122.996 31.3653 122.718 31.504C122.452 31.6427 122.222 31.8347 122.03 32.08C121.838 32.3147 121.689 32.5867 121.582 32.896C121.476 33.2053 121.422 33.5253 121.422 33.856C121.422 34.208 121.481 34.5333 121.598 34.832C121.716 35.1307 121.876 35.392 122.078 35.616C122.281 35.84 122.521 36.016 122.798 36.144C123.086 36.272 123.401 36.336 123.742 36.336ZM130.023 38V29.616H132.167V38H130.023ZM130.023 28.448V26.32H132.167V28.448H130.023ZM137.973 38.16C137.29 38.16 136.677 38.0427 136.133 37.808C135.589 37.5733 135.125 37.2587 134.741 36.864C134.368 36.4587 134.08 35.9947 133.877 35.472C133.674 34.9493 133.573 34.4 133.573 33.824C133.573 33.2373 133.674 32.6827 133.877 32.16C134.08 31.6373 134.368 31.1787 134.741 30.784C135.125 30.3787 135.589 30.0587 136.133 29.824C136.677 29.5893 137.29 29.472 137.973 29.472C138.656 29.472 139.264 29.5893 139.797 29.824C140.341 30.0587 140.8 30.3787 141.173 30.784C141.557 31.1787 141.85 31.6373 142.053 32.16C142.256 32.6827 142.357 33.2373 142.357 33.824C142.357 34.4 142.256 34.9493 142.053 35.472C141.85 35.9947 141.562 36.4587 141.189 36.864C140.816 37.2587 140.357 37.5733 139.813 37.808C139.269 38.0427 138.656 38.16 137.973 38.16ZM135.781 33.824C135.781 34.1973 135.834 34.5387 135.941 34.848C136.058 35.1467 136.213 35.408 136.405 35.632C136.608 35.856 136.842 36.032 137.109 36.16C137.376 36.2773 137.664 36.336 137.973 36.336C138.282 36.336 138.57 36.2773 138.837 36.16C139.104 36.032 139.333 35.856 139.525 35.632C139.728 35.408 139.882 35.1413 139.989 34.832C140.106 34.5227 140.165 34.1813 140.165 33.808C140.165 33.4453 140.106 33.1093 139.989 32.8C139.882 32.4907 139.728 32.224 139.525 32C139.333 31.776 139.104 31.6053 138.837 31.488C138.57 31.36 138.282 31.296 137.973 31.296C137.664 31.296 137.376 31.36 137.109 31.488C136.842 31.616 136.608 31.792 136.405 32.016C136.213 32.24 136.058 32.5067 135.941 32.816C135.834 33.1253 135.781 33.4613 135.781 33.824Z" fill="#3A86FF"/>
</g>
<defs>
<clipPath id="clip0_1_814">
<rect width="143" height="56" fill="white"/>
</clipPath>
</defs>
</svg>
