<svg width="57" height="16" viewBox="0 0 57 16" fill="none" xmlns="http://www.w3.org/2000/svg">
<path d="M0.264205 15V0.454545H3.33949V6.45597H9.58239V0.454545H12.6506V15H9.58239V8.99148H3.33949V15H0.264205ZM20.1009 15.2131C18.9787 15.2131 18.0128 14.9858 17.2031 14.5312C16.3982 14.072 15.7779 13.4233 15.3423 12.5852C14.9067 11.7424 14.6889 10.7457 14.6889 9.59517C14.6889 8.47301 14.9067 7.48816 15.3423 6.64062C15.7779 5.79309 16.3911 5.13258 17.1818 4.65909C17.9773 4.18561 18.91 3.94886 19.9801 3.94886C20.6998 3.94886 21.3698 4.06487 21.9901 4.29688C22.6151 4.52415 23.1596 4.86742 23.6236 5.3267C24.0923 5.78598 24.4569 6.36364 24.7173 7.05966C24.9777 7.75095 25.108 8.56061 25.108 9.48864V10.3196H15.8963V8.4446H22.2599C22.2599 8.009 22.1652 7.62311 21.9759 7.28693C21.7865 6.95076 21.5237 6.68797 21.1875 6.49858C20.8561 6.30445 20.4702 6.20739 20.0298 6.20739C19.5705 6.20739 19.1634 6.31392 18.8082 6.52699C18.4579 6.73532 18.1832 7.01705 17.9844 7.37216C17.7855 7.72254 17.6837 8.11316 17.679 8.54403V10.3267C17.679 10.8665 17.7784 11.3329 17.9773 11.7259C18.1809 12.1188 18.4673 12.4219 18.8366 12.6349C19.206 12.848 19.6439 12.9545 20.1506 12.9545C20.4867 12.9545 20.7945 12.9072 21.0739 12.8125C21.3532 12.7178 21.5923 12.5758 21.7912 12.3864C21.9901 12.197 22.1416 11.965 22.2457 11.6903L25.044 11.875C24.902 12.5473 24.6108 13.1345 24.1705 13.6364C23.7348 14.1335 23.1714 14.5218 22.4801 14.8011C21.7936 15.0758 21.0005 15.2131 20.1009 15.2131ZM27.0824 15V4.09091H30.0156V5.99432H30.1293C30.3281 5.31723 30.6619 4.80587 31.1307 4.46023C31.5994 4.10985 32.1392 3.93466 32.75 3.93466C32.9015 3.93466 33.0649 3.94413 33.2401 3.96307C33.4152 3.98201 33.5691 4.00805 33.7017 4.04119V6.72585C33.5597 6.68324 33.3632 6.64536 33.1122 6.61222C32.8613 6.57907 32.6316 6.5625 32.4233 6.5625C31.9782 6.5625 31.5805 6.65956 31.2301 6.85369C30.8845 7.04309 30.6098 7.30824 30.4062 7.64915C30.2074 7.99006 30.108 8.38305 30.108 8.82812V15H27.0824ZM39.6871 15.2131C38.5839 15.2131 37.6299 14.9787 36.8249 14.5099C36.0247 14.0365 35.4068 13.3783 34.9712 12.5355C34.5356 11.688 34.3178 10.7055 34.3178 9.58807C34.3178 8.46117 34.5356 7.47633 34.9712 6.63352C35.4068 5.78598 36.0247 5.12784 36.8249 4.65909C37.6299 4.18561 38.5839 3.94886 39.6871 3.94886C40.7904 3.94886 41.7421 4.18561 42.5423 4.65909C43.3472 5.12784 43.9674 5.78598 44.4031 6.63352C44.8387 7.47633 45.0565 8.46117 45.0565 9.58807C45.0565 10.7055 44.8387 11.688 44.4031 12.5355C43.9674 13.3783 43.3472 14.0365 42.5423 14.5099C41.7421 14.9787 40.7904 15.2131 39.6871 15.2131ZM39.7013 12.8693C40.2032 12.8693 40.6223 12.7273 40.9585 12.4432C41.2946 12.1544 41.5479 11.7614 41.7184 11.2642C41.8936 10.767 41.9812 10.2012 41.9812 9.56676C41.9812 8.93229 41.8936 8.36648 41.7184 7.86932C41.5479 7.37216 41.2946 6.97917 40.9585 6.69034C40.6223 6.40151 40.2032 6.2571 39.7013 6.2571C39.1947 6.2571 38.7686 6.40151 38.4229 6.69034C38.082 6.97917 37.824 7.37216 37.6488 7.86932C37.4783 8.36648 37.3931 8.93229 37.3931 9.56676C37.3931 10.2012 37.4783 10.767 37.6488 11.2642C37.824 11.7614 38.082 12.1544 38.4229 12.4432C38.7686 12.7273 39.1947 12.8693 39.7013 12.8693ZM49.1616 4.09091L51.1644 7.90483L53.217 4.09091H56.3207L53.1602 9.54545L56.4059 15H53.3164L51.1644 11.2287L49.0479 15H45.9229L49.1616 9.54545L46.0366 4.09091H49.1616Z" fill="black"/>
</svg>
