<svg width="167" height="36" viewBox="0 0 167 36" fill="none" xmlns="http://www.w3.org/2000/svg">
<path d="M50.3838 8.86333H54.2531L59.435 21.5111H59.6395L64.8213 8.86333H68.6906V26.3179H65.6566V14.3264H65.4946L60.6708 26.2667H58.4037L53.5798 14.3008H53.4179V26.3179H50.3838V8.86333ZM77.5529 26.5736C76.2404 26.5736 75.1069 26.3008 74.1523 25.7554C73.2035 25.2042 72.4734 24.4258 71.962 23.4201C71.4506 22.4088 71.195 21.2184 71.195 19.8491C71.195 18.5025 71.4506 17.3207 71.962 16.3037C72.479 15.2809 73.2006 14.4855 74.1268 13.9173C75.0529 13.3434 76.141 13.0565 77.391 13.0565C78.1978 13.0565 78.9592 13.1872 79.6751 13.4486C80.3967 13.7042 81.033 14.102 81.5842 14.6417C82.141 15.1815 82.5785 15.869 82.8967 16.7042C83.2148 17.5338 83.3739 18.5224 83.3739 19.6701V20.6162H72.6438V18.5366H80.4165C80.4109 17.9457 80.283 17.4201 80.033 16.9599C79.783 16.494 79.4336 16.1275 78.9847 15.8605C78.5416 15.5934 78.0245 15.4599 77.4336 15.4599C76.8029 15.4599 76.2489 15.6133 75.7717 15.9201C75.2944 16.2213 74.9222 16.619 74.6552 17.1133C74.3938 17.602 74.2603 18.1389 74.2546 18.7241V20.5395C74.2546 21.3008 74.3938 21.9542 74.6722 22.4997C74.9506 23.0395 75.3398 23.4542 75.8398 23.744C76.3398 24.0281 76.9251 24.1701 77.5955 24.1701C78.0444 24.1701 78.4506 24.1076 78.8143 23.9826C79.1779 23.852 79.4933 23.6616 79.7603 23.4116C80.0273 23.1616 80.2291 22.852 80.3654 22.4826L83.2461 22.8065C83.0643 23.5679 82.7177 24.2326 82.2063 24.8008C81.7006 25.3633 81.0529 25.8008 80.2631 26.1133C79.4734 26.4201 78.57 26.5736 77.5529 26.5736ZM90.602 26.548C89.5736 26.548 88.6531 26.2838 87.8406 25.7554C87.0281 25.227 86.3861 24.4599 85.9145 23.4542C85.4429 22.4486 85.2071 21.227 85.2071 19.7895C85.2071 18.3349 85.4457 17.1076 85.923 16.1076C86.406 15.102 87.0565 14.3434 87.8747 13.8321C88.6929 13.315 89.6048 13.0565 90.6105 13.0565C91.3775 13.0565 92.0082 13.1872 92.5025 13.4486C92.9969 13.7042 93.3889 14.0139 93.6787 14.3775C93.9685 14.7355 94.1929 15.0736 94.352 15.3917H94.4798V8.86333H97.5736V26.3179H94.5395V24.2554H94.352C94.1929 24.5736 93.9628 24.9116 93.6616 25.2696C93.3605 25.6218 92.9628 25.923 92.4685 26.173C91.9741 26.423 91.352 26.548 90.602 26.548ZM91.4628 24.0167C92.1162 24.0167 92.673 23.8406 93.1332 23.4883C93.5935 23.1304 93.9429 22.6332 94.1815 21.9968C94.4202 21.3605 94.5395 20.619 94.5395 19.7724C94.5395 18.9258 94.4202 18.19 94.1815 17.565C93.9486 16.94 93.602 16.4542 93.1417 16.1076C92.6872 15.7611 92.1275 15.5878 91.4628 15.5878C90.7753 15.5878 90.2014 15.7667 89.7412 16.1247C89.281 16.4826 88.9344 16.977 88.7014 17.6076C88.4685 18.2383 88.352 18.9599 88.352 19.7724C88.352 20.5906 88.4685 21.3207 88.7014 21.9628C88.94 22.5991 89.2895 23.102 89.7497 23.4713C90.2156 23.8349 90.7866 24.0167 91.4628 24.0167ZM100.621 26.3179V13.227H103.706V26.3179H100.621ZM102.172 11.369C101.684 11.369 101.263 11.2071 100.911 10.8832C100.559 10.5537 100.383 10.1588 100.383 9.69855C100.383 9.23264 100.559 8.83776 100.911 8.51389C101.263 8.18435 101.684 8.01958 102.172 8.01958C102.667 8.01958 103.087 8.18435 103.434 8.51389C103.786 8.83776 103.962 9.23264 103.962 9.69855C103.962 10.1588 103.786 10.5537 103.434 10.8832C103.087 11.2071 102.667 11.369 102.172 11.369ZM112.349 26.5736C111.042 26.5736 109.92 26.2866 108.983 25.7128C108.051 25.1389 107.332 24.3463 106.827 23.3349C106.327 22.3179 106.077 21.1474 106.077 19.8236C106.077 18.494 106.332 17.3207 106.844 16.3037C107.355 15.2809 108.077 14.4855 109.008 13.9173C109.946 13.3434 111.054 13.0565 112.332 13.0565C113.395 13.0565 114.335 13.2525 115.153 13.6446C115.977 14.0309 116.633 14.5792 117.122 15.2895C117.611 15.994 117.889 16.8179 117.957 17.7611H115.008C114.889 17.1304 114.605 16.6048 114.156 16.1843C113.713 15.7582 113.119 15.5451 112.375 15.5451C111.744 15.5451 111.19 15.7156 110.713 16.0565C110.236 16.3917 109.863 16.8747 109.596 17.5054C109.335 18.1361 109.204 18.8917 109.204 19.7724C109.204 20.6645 109.335 21.4315 109.596 22.0736C109.858 22.7099 110.224 23.2014 110.696 23.548C111.173 23.8889 111.733 24.0593 112.375 24.0593C112.829 24.0593 113.236 23.9741 113.594 23.8037C113.957 23.6275 114.261 23.3747 114.505 23.0451C114.75 22.7156 114.917 22.315 115.008 21.8434H117.957C117.883 22.7696 117.611 23.5906 117.139 24.3065C116.667 25.0167 116.025 25.5736 115.213 25.977C114.4 26.3747 113.446 26.5736 112.349 26.5736ZM124.018 26.5821C123.188 26.5821 122.441 26.4343 121.776 26.1389C121.117 25.8378 120.594 25.3946 120.208 24.8093C119.827 24.2241 119.637 23.5025 119.637 22.6446C119.637 21.9059 119.773 21.2951 120.046 20.8122C120.319 20.3292 120.691 19.9429 121.163 19.6531C121.634 19.3633 122.165 19.1446 122.756 18.9968C123.353 18.8434 123.969 18.7326 124.606 18.6645C125.373 18.5849 125.995 18.5139 126.472 18.4514C126.949 18.3832 127.296 18.2809 127.512 18.1446C127.734 18.0025 127.844 17.7838 127.844 17.4883V17.4372C127.844 16.7951 127.654 16.298 127.273 15.9457C126.893 15.5934 126.344 15.4173 125.628 15.4173C124.873 15.4173 124.273 15.5821 123.83 15.9116C123.393 16.2412 123.097 16.6304 122.944 17.0792L120.063 16.6701C120.29 15.8747 120.665 15.2099 121.188 14.6758C121.711 14.1361 122.35 13.7326 123.106 13.4656C123.861 13.1929 124.697 13.0565 125.611 13.0565C126.242 13.0565 126.87 13.1304 127.495 13.2781C128.12 13.4258 128.691 13.6701 129.208 14.0111C129.725 14.3463 130.14 14.8037 130.452 15.3832C130.77 15.9628 130.93 16.6872 130.93 17.5565V26.3179H127.964V24.5196H127.861C127.674 24.8832 127.41 25.2241 127.069 25.5423C126.734 25.8548 126.31 26.1076 125.799 26.3008C125.293 26.4883 124.699 26.5821 124.018 26.5821ZM124.819 24.315C125.438 24.315 125.975 24.1929 126.43 23.9486C126.884 23.6986 127.234 23.369 127.478 22.9599C127.728 22.5508 127.853 22.1048 127.853 21.6218V20.0792C127.756 20.1588 127.591 20.2326 127.359 20.3008C127.131 20.369 126.876 20.4287 126.591 20.4798C126.307 20.5309 126.026 20.5764 125.748 20.6162C125.469 20.6559 125.228 20.69 125.023 20.7184C124.563 20.7809 124.151 20.8832 123.788 21.0253C123.424 21.1673 123.137 21.3662 122.927 21.6218C122.716 21.8718 122.611 22.1957 122.611 22.5934C122.611 23.1616 122.819 23.5906 123.234 23.8804C123.648 24.1701 124.177 24.315 124.819 24.315ZM133.792 26.3179V13.227H136.783V15.4088H136.92C137.158 14.6531 137.567 14.0707 138.147 13.6616C138.732 13.2468 139.4 13.0395 140.15 13.0395C140.32 13.0395 140.511 13.048 140.721 13.065C140.937 13.0764 141.116 13.0963 141.258 13.1247V15.9628C141.127 15.9173 140.92 15.8775 140.636 15.8434C140.357 15.8037 140.087 15.7838 139.826 15.7838C139.263 15.7838 138.758 15.9059 138.309 16.1503C137.866 16.3889 137.516 16.7213 137.261 17.1474C137.005 17.5736 136.877 18.065 136.877 18.6218V26.3179H133.792ZM148.324 26.5736C147.011 26.5736 145.878 26.3008 144.923 25.7554C143.974 25.2042 143.244 24.4258 142.733 23.4201C142.222 22.4088 141.966 21.2184 141.966 19.8491C141.966 18.5025 142.222 17.3207 142.733 16.3037C143.25 15.2809 143.972 14.4855 144.898 13.9173C145.824 13.3434 146.912 13.0565 148.162 13.0565C148.969 13.0565 149.73 13.1872 150.446 13.4486C151.168 13.7042 151.804 14.102 152.355 14.6417C152.912 15.1815 153.349 15.869 153.668 16.7042C153.986 17.5338 154.145 18.5224 154.145 19.6701V20.6162H143.415V18.5366H151.187C151.182 17.9457 151.054 17.4201 150.804 16.9599C150.554 16.494 150.205 16.1275 149.756 15.8605C149.312 15.5934 148.795 15.4599 148.205 15.4599C147.574 15.4599 147.02 15.6133 146.543 15.9201C146.065 16.2213 145.693 16.619 145.426 17.1133C145.165 17.602 145.031 18.1389 145.026 18.7241V20.5395C145.026 21.3008 145.165 21.9542 145.443 22.4997C145.722 23.0395 146.111 23.4542 146.611 23.744C147.111 24.0281 147.696 24.1701 148.366 24.1701C148.815 24.1701 149.222 24.1076 149.585 23.9826C149.949 23.852 150.264 23.6616 150.531 23.4116C150.798 23.1616 151 22.852 151.136 22.4826L154.017 22.8065C153.835 23.5679 153.489 24.2326 152.977 24.8008C152.472 25.3633 151.824 25.8008 151.034 26.1133C150.244 26.4201 149.341 26.5736 148.324 26.5736Z" fill="black"/>
<circle cx="17.6954" cy="17.6954" r="17.6954" fill="#52C773"/>
<rect x="6.74695" y="13.0032" width="8.84768" height="22.1192" rx="4" transform="rotate(-45 6.74695 13.0032)" fill="white"/>
</svg>
