<svg width="133" height="40" viewBox="0 0 133 40" fill="none" xmlns="http://www.w3.org/2000/svg">
<path d="M53 29.382H70.0274V24.5056H58.1598V5H53V29.382Z" fill="black"/>
<path d="M71.2421 20.5C71.2421 25.7247 75.3356 29.9045 80.8738 29.9045C86.3432 29.9045 90.5054 25.7247 90.5054 20.5C90.5054 15.2753 86.3432 11.0955 80.8738 11.0955C75.3356 11.0955 71.2421 15.2753 71.2421 20.5ZM76.2299 20.5C76.2299 17.3652 78.2939 15.2753 80.8738 15.2753C83.4537 15.2753 85.5176 17.3652 85.5176 20.5C85.5176 23.6348 83.4537 25.7247 80.8738 25.7247C78.2939 25.7247 76.2299 23.6348 76.2299 20.5Z" fill="black"/>
<path d="M92.4094 20.3258C92.4094 25.864 96.0213 29.5562 100.493 29.5562C102.419 29.5562 103.727 28.8595 104.655 28.1629C105.171 27.7449 105.619 27.2573 105.997 26.7348H106.169V31.8202H94.9893V36H110.985V11.618H106.169V13.9169H105.997C105.619 13.3944 105.171 12.9416 104.655 12.5236C103.727 11.827 102.419 11.0955 100.493 11.0955C96.0213 11.0955 92.4094 14.7876 92.4094 20.3258ZM97.3973 20.3258C97.3973 17.1562 99.2548 15.2753 101.869 15.2753C104.311 15.2753 106.169 17.1562 106.169 20.3258C106.169 23.4955 104.311 25.3764 101.869 25.3764C99.2548 25.3764 97.3973 23.4955 97.3973 20.3258Z" fill="black"/>
<path d="M113.737 20.5C113.737 25.7247 117.83 29.9045 123.368 29.9045C128.838 29.9045 133 25.7247 133 20.5C133 15.2753 128.838 11.0955 123.368 11.0955C117.83 11.0955 113.737 15.2753 113.737 20.5ZM118.725 20.5C118.725 17.3652 120.788 15.2753 123.368 15.2753C125.948 15.2753 128.012 17.3652 128.012 20.5C128.012 23.6348 125.948 25.7247 123.368 25.7247C120.788 25.7247 118.725 23.6348 118.725 20.5Z" fill="black"/>
<path d="M26.16 13.73C25.77 13.28 25.19 13.05 24.41 13.05C23.63 13.05 23.05 13.28 22.66 13.73C22.29 14.18 22.1 14.83 22.1 15.67V20V24.33C22.1 25.77 21.83 26.98 21.28 27.98C20.72 28.98 19.96 29.73 18.99 30.25C18.01 30.75 16.9 31 15.67 31C14.44 31 13.31 30.75 12.3 30.25C11.28 29.74 10.47 28.98 9.88 27.98C9.3 26.97 9 25.76 9 24.33V3.30005C3.58 6.88005 0 13.02 0 20C0 31.05 8.95 40 20 40C22.38 40 24.65 39.56 26.77 38.8V15.67C26.77 14.84 26.57 14.2 26.16 13.73Z" fill="#B07720"/>
<path d="M40 20C40 8.95 31.05 0 20 0C17.62 0 15.35 0.44 13.23 1.2V24.33C13.23 25.15 13.43 25.8 13.83 26.27C14.22 26.72 14.8 26.95 15.58 26.95C16.36 26.95 16.94 26.72 17.33 26.27C17.7 25.82 17.89 25.17 17.89 24.33V20V15.67C17.89 14.23 18.16 13.02 18.71 12.02C19.27 11.02 20.03 10.27 21 9.75C21.98 9.25 23.09 9 24.33 9C25.57 9 26.69 9.25 27.7 9.75C28.72 10.26 29.53 11.02 30.12 12.02C30.7 13.03 31 14.24 31 15.67V36.7C36.42 33.12 40 26.98 40 20Z" fill="#B07720"/>
<path d="M30.11 12.01C29.52 11.01 28.71 10.26 27.69 9.73995C26.69 9.24995 25.57 8.99995 24.33 8.99995C23.09 8.99995 21.98 9.24995 21 9.74995C20.04 10.26 19.27 11.02 18.71 12.02C18.16 13.02 17.89 14.23 17.89 15.67V20V24.33C17.89 25.17 17.7 25.81 17.33 26.27C16.94 26.72 16.36 26.95 15.58 26.95C14.8 26.95 14.22 26.72 13.83 26.27C13.43 25.8 13.23 25.16 13.23 24.33V1.19995C11.73 1.73995 10.31 2.43995 9 3.29995V24.33C9 25.75 9.3 26.9699 9.89 27.9799C10.48 28.9799 11.29 29.73 12.31 30.25C13.32 30.75 14.44 31 15.68 31C16.92 31 18.03 30.75 19 30.25C19.96 29.74 20.73 28.9799 21.29 27.9799C21.84 26.9799 22.11 25.77 22.11 24.33V20V15.67C22.11 14.83 22.3 14.19 22.67 13.73C23.06 13.28 23.64 13.05 24.42 13.05C25.2 13.05 25.78 13.28 26.17 13.73C26.57 14.2 26.77 14.84 26.77 15.67V38.7999C28.27 38.2599 29.69 37.5599 31 36.6899V15.67C31 14.24 30.7 13.03 30.11 12.01Z" fill="white"/>
</svg>
