<svg width="135" height="28" viewBox="0 0 135 28" fill="none" xmlns="http://www.w3.org/2000/svg">
<g clip-path="url(#clip0_0_112)">
<path d="M56.1468 5.60004V22.4H53.1487V9.2167H53.1087L47.7521 22.4H45.7533L40.2768 9.2167H40.2368V22.4H37.4785V5.60004H41.7958L46.7527 18.0445H46.8327L52.0694 5.60004H56.1468ZM58.6253 6.88337C58.6253 6.4167 58.7852 6.02781 59.145 5.7167C59.5047 5.40559 59.9045 5.25004 60.3842 5.25004C60.9039 5.25004 61.3436 5.40559 61.6634 5.7167C61.9832 6.02781 62.1831 6.4167 62.1831 6.88337C62.1831 7.35004 62.0232 7.73892 61.6634 8.05004C61.3036 8.36115 60.9039 8.5167 60.3842 8.5167C59.8645 8.5167 59.4648 8.36115 59.145 8.05004C58.8252 7.70004 58.6253 7.31115 58.6253 6.88337ZM61.8633 10.3445V22.4H58.9451V10.3445H61.8633ZM70.6977 20.3389C71.1375 20.3389 71.6172 20.2611 72.1368 20.0278C72.6565 19.8334 73.1362 19.5611 73.5759 19.25V21.8945C73.0962 22.1667 72.5766 22.3611 71.9769 22.4778C71.3773 22.5945 70.7377 22.6723 70.0182 22.6723C68.1793 22.6723 66.7002 22.1278 65.5809 21C64.4217 19.8723 63.862 18.4334 63.862 16.7223C63.862 14.7778 64.4616 13.1834 65.6209 11.9389C66.7802 10.6945 68.4192 10.0723 70.5778 10.0723C71.1375 10.0723 71.6971 10.15 72.2168 10.2667C72.7764 10.3834 73.2162 10.5778 73.536 10.7334V13.4556C73.0962 13.1445 72.6165 12.8723 72.1768 12.7167C71.6971 12.5611 71.2174 12.4445 70.7377 12.4445C69.5784 12.4445 68.659 12.7945 67.9395 13.5334C67.2199 14.2723 66.9001 15.2445 66.9001 16.4889C66.9001 17.6945 67.2599 18.6667 67.9395 19.3278C68.619 19.9889 69.5385 20.3389 70.6977 20.3389ZM81.8508 10.15C82.0906 10.15 82.2905 10.15 82.4904 10.1889C82.6902 10.2278 82.8501 10.2667 82.9701 10.3056V13.1834C82.8102 13.0667 82.6103 12.95 82.2905 12.8723C81.9707 12.7945 81.6509 12.7167 81.2112 12.7167C80.4916 12.7167 79.892 13.0278 79.4123 13.6111C78.9326 14.1945 78.6528 15.0889 78.6528 16.3334V22.4H75.7346V10.3445H78.6528V12.25H78.6927C78.9726 11.5889 79.3723 11.0834 79.892 10.6945C80.4516 10.3445 81.0912 10.15 81.8508 10.15ZM83.13 16.5667C83.13 14.5834 83.7296 12.9889 84.8489 11.8223C86.0082 10.6556 87.6072 10.0723 89.6459 10.0723C91.5647 10.0723 93.0837 10.6167 94.1631 11.7445C95.2424 12.8723 95.802 14.3889 95.802 16.2945C95.802 18.2389 95.2024 19.7945 94.0831 20.9611C92.9238 22.1278 91.3648 22.7111 89.3661 22.7111C87.4473 22.7111 85.9282 22.1667 84.8089 21.0778C83.6896 19.95 83.13 18.4334 83.13 16.5667ZM86.1681 16.45C86.1681 17.6945 86.4479 18.6667 87.0475 19.3278C87.6471 19.9889 88.4866 20.3389 89.5659 20.3389C90.6053 20.3389 91.4448 20.0278 92.0044 19.3278C92.5641 18.6667 92.8439 17.6945 92.8439 16.3723C92.8439 15.0889 92.5641 14.1167 92.0044 13.4167C91.4448 12.7556 90.6053 12.4056 89.6059 12.4056C88.5266 12.4056 87.7271 12.7556 87.1275 13.4556C86.4479 14.1945 86.1681 15.1667 86.1681 16.45ZM100.159 13.5334C100.159 13.9223 100.279 14.2723 100.559 14.5056C100.839 14.7389 101.399 15.0111 102.318 15.3611C103.477 15.8278 104.317 16.3334 104.756 16.8778C105.236 17.4611 105.476 18.1223 105.476 18.9389C105.476 20.0667 105.036 20.9611 104.117 21.6611C103.237 22.3611 101.998 22.6723 100.479 22.6723C99.9594 22.6723 99.3998 22.5945 98.7602 22.4778C98.1206 22.3611 97.6009 22.2056 97.1612 22.0111V19.2111C97.6809 19.5611 98.2805 19.8723 98.8801 20.0667C99.4797 20.2611 100.039 20.3778 100.559 20.3778C101.199 20.3778 101.718 20.3 101.998 20.1056C102.318 19.9111 102.478 19.6389 102.478 19.2111C102.478 18.8223 102.318 18.5111 101.998 18.2C101.678 17.9278 101.039 17.6167 100.159 17.2667C99.08 16.8389 98.3205 16.3334 97.8807 15.7889C97.441 15.2445 97.2012 14.5445 97.2012 13.6889C97.2012 12.6 97.6409 11.7056 98.5203 11.0056C99.3998 10.3056 100.559 9.95559 101.958 9.95559C102.398 9.95559 102.878 9.99448 103.397 10.1111C103.917 10.2278 104.397 10.3445 104.756 10.4611V13.2223C104.357 12.9889 103.917 12.7556 103.397 12.5611C102.878 12.3667 102.358 12.2889 101.878 12.2889C101.319 12.2889 100.879 12.4056 100.599 12.6C100.319 12.8723 100.159 13.1445 100.159 13.5334ZM106.715 16.5667C106.715 14.5834 107.315 12.9889 108.434 11.8223C109.593 10.6556 111.192 10.0723 113.231 10.0723C115.15 10.0723 116.669 10.6167 117.748 11.7445C118.828 12.8723 119.387 14.3889 119.387 16.2945C119.387 18.2389 118.788 19.7945 117.668 20.9611C116.509 22.1278 114.95 22.7111 112.951 22.7111C111.033 22.7111 109.513 22.1667 108.394 21.0778C107.315 19.95 106.715 18.4334 106.715 16.5667ZM109.753 16.45C109.753 17.6945 110.033 18.6667 110.633 19.3278C111.232 19.9889 112.072 20.3389 113.151 20.3389C114.191 20.3389 115.03 20.0278 115.59 19.3278C116.149 18.6667 116.429 17.6945 116.429 16.3723C116.429 15.0889 116.149 14.1167 115.59 13.4167C115.03 12.7556 114.191 12.4056 113.191 12.4056C112.112 12.4056 111.312 12.7556 110.713 13.4556C110.073 14.1945 109.753 15.1667 109.753 16.45ZM129.101 12.6778H124.744V22.4H121.786V12.6778H119.707V10.3445H121.786V8.67226C121.786 7.42781 122.226 6.37781 123.065 5.56115C123.904 4.74448 124.984 4.35559 126.303 4.35559C126.663 4.35559 126.983 4.39448 127.262 4.39448C127.542 4.39448 127.782 4.47226 127.982 4.55004V7.00004C127.902 6.96115 127.702 6.88337 127.462 6.80559C127.222 6.72781 126.943 6.68892 126.623 6.68892C126.023 6.68892 125.543 6.88337 125.224 7.23337C124.904 7.58337 124.744 8.1667 124.744 8.8667V10.3056H129.101V7.58337L132.019 6.72781V10.3056H134.978V12.6389H132.019V18.2778C132.019 19.0167 132.179 19.5223 132.419 19.8334C132.699 20.1445 133.139 20.3 133.738 20.3C133.898 20.3 134.098 20.2611 134.338 20.1834C134.578 20.1056 134.778 20.0278 134.938 19.9111V22.2445C134.738 22.3611 134.458 22.4389 134.018 22.5167C133.578 22.5945 133.179 22.6334 132.739 22.6334C131.5 22.6334 130.58 22.3223 129.981 21.7C129.381 21.0778 129.061 20.1056 129.061 18.8223L129.101 12.6778Z" fill="#737373"/>
<path d="M0.0234375 0H13.6949V13.3H0.0234375V0Z" fill="#F25022"/>
<path d="M15.1328 0H28.8043V13.3H15.1328V0Z" fill="#7FBA00"/>
<path d="M0.0234375 14.7002H13.6949V28.0002H0.0234375V14.7002Z" fill="#00A4EF"/>
<path d="M15.1328 14.7H28.8043V28H15.1328V14.7Z" fill="#FFB900"/>
</g>
<defs>
<clipPath id="clip0_0_112">
<rect width="135" height="28" fill="white"/>
</clipPath>
</defs>
</svg>
