<svg width="1440" height="888" viewBox="0 0 1440 888" fill="none" xmlns="http://www.w3.org/2000/svg">
<path d="M-618.598 1046.95C-622.544 1023.68 -609.123 681.905 -484.782 398.924C-373.168 145.267 -113.617 0.697619 190.161 183.01C515.647 378.404 796.4 398.053 1022.78 341.055C1246.2 284.545 1394.77 114.274 1461.5 5.69918C1606.32 -228.932 1820.25 -83.8009 1745.1 224.907C1709.65 368.51 1616.18 408.66 1454.21 423.56C1284.91 439.135 1034.77 406.074 687.835 473.45C353.244 538.682 -23.2812 695.345 -235.006 894.758C-460.334 1107.16 -585.565 1250 -618.598 1046.95Z" fill="url(#paint0_linear_13_2279)"/>
<defs>
<linearGradient id="paint0_linear_13_2279" x1="1637" y1="862.32" x2="-567.332" y2="179.04" gradientUnits="userSpaceOnUse">
<stop stop-color="#5D50C6"/>
<stop offset="1" stop-color="#F85E9F"/>
</linearGradient>
</defs>
</svg>
