<svg width="126" height="108" viewBox="0 0 126 108" fill="none" xmlns="http://www.w3.org/2000/svg">
<g filter="url(#filter0_ddd_13_884)">
<rect x="31" width="64" height="64" rx="32" fill="#FF5722"/>
<path fill-rule="evenodd" clip-rule="evenodd" d="M59.6666 32.7382C63.3394 32.7382 66.2834 29.7561 66.2834 26.0357C66.2834 22.3154 63.3394 19.3333 59.6666 19.3333C55.9939 19.3333 53.0498 22.3154 53.0498 26.0357C53.0498 29.7561 55.9939 32.7382 59.6666 32.7382ZM59.6666 36.0202C54.2723 36.0202 49.6666 36.8827 49.6666 40.3285C49.6666 43.773 54.2442 44.6666 59.6666 44.6666C65.0597 44.6666 69.6666 43.8041 69.6666 40.3582C69.6666 36.9125 65.089 36.0202 59.6666 36.0202ZM73.5305 28.7837H75.1346C75.7949 28.7837 76.3333 29.3297 76.3333 29.9993C76.3333 30.6687 75.7949 31.2147 75.1346 31.2147H73.5305V32.7845C73.5305 33.4541 72.9936 33.9999 72.332 33.9999C71.6717 33.9999 71.1333 33.4541 71.1333 32.7845V31.2147H69.532C68.8702 31.2147 68.3333 30.6687 68.3333 29.9993C68.3333 29.3297 68.8702 28.7837 69.532 28.7837H71.1333V27.2154C71.1333 26.5459 71.6717 25.9999 72.332 25.9999C72.9936 25.9999 73.5305 26.5459 73.5305 27.2154V28.7837Z" fill="white"/>
</g>
<defs>
<filter id="filter0_ddd_13_884" x="0" y="0" width="126" height="172" filterUnits="userSpaceOnUse" color-interpolation-filters="sRGB">
<feFlood flood-opacity="0" result="BackgroundImageFix"/>
<feColorMatrix in="SourceAlpha" type="matrix" values="0 0 0 0 0 0 0 0 0 0 0 0 0 0 0 0 0 0 127 0" result="hardAlpha"/>
<feOffset dy="19"/>
<feGaussianBlur stdDeviation="9.5"/>
<feColorMatrix type="matrix" values="0 0 0 0 0 0 0 0 0 0 0 0 0 0 0 0 0 0 0.09 0"/>
<feBlend mode="normal" in2="BackgroundImageFix" result="effect1_dropShadow_13_884"/>
<feColorMatrix in="SourceAlpha" type="matrix" values="0 0 0 0 0 0 0 0 0 0 0 0 0 0 0 0 0 0 127 0" result="hardAlpha"/>
<feOffset dy="43"/>
<feGaussianBlur stdDeviation="13"/>
<feColorMatrix type="matrix" values="0 0 0 0 0 0 0 0 0 0 0 0 0 0 0 0 0 0 0.05 0"/>
<feBlend mode="normal" in2="effect1_dropShadow_13_884" result="effect2_dropShadow_13_884"/>
<feColorMatrix in="SourceAlpha" type="matrix" values="0 0 0 0 0 0 0 0 0 0 0 0 0 0 0 0 0 0 127 0" result="hardAlpha"/>
<feOffset dy="77"/>
<feGaussianBlur stdDeviation="15.5"/>
<feColorMatrix type="matrix" values="0 0 0 0 0 0 0 0 0 0 0 0 0 0 0 0 0 0 0.01 0"/>
<feBlend mode="normal" in2="effect2_dropShadow_13_884" result="effect3_dropShadow_13_884"/>
<feBlend mode="normal" in="SourceGraphic" in2="effect3_dropShadow_13_884" result="shape"/>
</filter>
</defs>
</svg>
