<svg width="25" height="32" viewBox="0 0 25 32" fill="none" xmlns="http://www.w3.org/2000/svg">
<path opacity="0.5" fill-rule="evenodd" clip-rule="evenodd" d="M0.490681 0.47998C0.179091 0.858144 0 1.44019 0 2.19652V29.0988C0 29.8551 0.179091 30.4372 0.502329 30.8022L0.586778 30.8828L13.9356 15.8088V15.4701L0.57513 0.399414L0.490681 0.47998Z" fill="#0052FF"/>
<path fill-rule="evenodd" clip-rule="evenodd" d="M18.3765 20.8532L13.924 15.8236V15.4717L18.3779 10.4421L18.474 10.5096L23.7419 13.89C25.2504 14.8502 25.2504 16.4319 23.7419 17.4053L18.474 20.7857C18.4726 20.7857 18.3765 20.8532 18.3765 20.8532Z" fill="#0052FF"/>
<path opacity="0.7" fill-rule="evenodd" clip-rule="evenodd" d="M18.4732 20.7858L13.9246 15.6477L0.491333 30.817C0.982013 31.4122 1.80758 31.4796 2.7307 30.8976L18.4732 20.7858Z" fill="#0052FF"/>
<path opacity="0.9" fill-rule="evenodd" clip-rule="evenodd" d="M18.4732 10.5112L2.7307 0.41255C1.80904 -0.18265 0.982013 -0.102084 0.491333 0.493116L13.9232 15.6477L18.4732 10.5112Z" fill="#0052FF"/>
<path opacity="0.2" fill-rule="evenodd" clip-rule="evenodd" d="M18.3766 20.6772L2.74181 30.7085C1.86819 31.2757 1.08922 31.2363 0.586891 30.7216L0.502441 30.817L0.586891 30.8976C1.08922 31.4106 1.86819 31.4517 2.74181 30.8844L18.4844 20.7858L18.3766 20.6772Z" fill="#0052FF"/>
<path opacity="0.12" fill-rule="evenodd" clip-rule="evenodd" d="M23.7404 17.2294L18.3647 20.6773L18.4608 20.7858L23.7287 17.4053C24.483 16.9187 24.8542 16.284 24.8542 15.6477C24.8062 16.2297 24.4233 16.7838 23.7404 17.2294Z" fill="#0052FF"/>
<path opacity="0.25" fill-rule="evenodd" clip-rule="evenodd" d="M2.73005 0.588485L23.7405 14.0676C24.4234 14.5 24.8063 15.0672 24.866 15.6493C24.866 15.0146 24.4947 14.3783 23.7405 13.8917L2.73005 0.412556C1.22161 -0.560806 0 0.249781 0 2.19651V2.37243C0 0.42571 1.22161 -0.371724 2.73005 0.588485Z" fill="#0052FF"/>
</svg>
