<svg width="198" height="122" viewBox="0 0 198 122" fill="none" xmlns="http://www.w3.org/2000/svg">
<g filter="url(#filter0_d_1_881)">
<rect x="22" y="9" width="154" height="77" rx="12.936" fill="white"/>
<path d="M22 21.32C22 14.5159 27.5159 9 34.32 9H163.68C170.484 9 176 14.5159 176 21.32V73.68C176 80.4841 170.484 86 163.68 86H34.32C27.5159 86 22 80.4841 22 73.68V21.32Z" fill="#CA95FF"/>
<mask id="mask0_1_881" style="mask-type:alpha" maskUnits="userSpaceOnUse" x="22" y="9" width="154" height="77">
<path d="M22 21.32C22 14.5159 27.5159 9 34.32 9H163.68C170.484 9 176 14.5159 176 21.32V73.68C176 80.4841 170.484 86 163.68 86H34.32C27.5159 86 22 80.4841 22 73.68V21.32Z" fill="#47A1F4"/>
</mask>
<g mask="url(#mask0_1_881)">
<path d="M117.753 36.2236C132.789 21.1884 157.165 21.1884 172.201 36.2236L226.648 90.6708C241.683 105.706 241.683 130.083 226.648 145.118C211.613 160.153 187.236 160.153 172.201 145.118L117.753 90.6708C102.718 75.6356 102.718 51.2588 117.753 36.2236Z" fill="#DAAAFF"/>
<path d="M115.17 31.33C115.17 10.0671 132.407 -7.16998 153.67 -7.16998L230.67 -7.16998C251.933 -7.16998 269.17 10.0671 269.17 31.33C269.17 52.593 251.933 69.83 230.67 69.83H153.67C132.407 69.83 115.17 52.593 115.17 31.33Z" fill="white" fill-opacity="0.3"/>
<path fill-rule="evenodd" clip-rule="evenodd" d="M110.207 -62.5823L87.3126 10.9352C81.1168 30.8305 92.2224 51.9815 112.118 58.1773C132.013 64.3731 153.164 53.2675 159.36 33.3722L182.255 -40.1453C188.45 -60.0406 177.345 -81.1916 157.45 -87.3874C137.554 -93.5832 116.403 -82.4776 110.207 -62.5823ZM86.5774 10.7063C80.2552 31.0076 91.5875 52.5902 111.889 58.9125C132.19 65.2347 153.773 53.9024 160.095 33.6011L182.99 -39.9164C189.312 -60.2177 177.98 -81.8003 157.679 -88.1226C137.377 -94.4448 115.795 -83.1125 109.472 -62.8112L86.5774 10.7063Z" fill="white" fill-opacity="0.3"/>
</g>
<path d="M39.198 35.6098H35.6868L35.04 37.4H33.9312L36.8418 29.3959H38.0545L40.9536 37.4H39.8448L39.198 35.6098ZM38.8977 34.7551L37.4424 30.6895L35.9871 34.7551H38.8977Z" fill="white"/>
<path d="M42.5994 34.2238C42.5994 33.5693 42.7303 32.9995 42.9921 32.5144C43.2539 32.0216 43.6158 31.6404 44.0778 31.3709C44.5475 31.1014 45.0826 30.9667 45.6832 30.9667C46.4609 30.9667 47.1 31.1553 47.6005 31.5326C48.1087 31.9099 48.4437 32.4335 48.6054 33.1034H47.4735C47.3657 32.7184 47.1539 32.4143 46.8382 32.191C46.5302 31.9677 46.1452 31.856 45.6832 31.856C45.0826 31.856 44.5975 32.0639 44.2279 32.4797C43.8583 32.8878 43.6735 33.4692 43.6735 34.2238C43.6735 34.9861 43.8583 35.5751 44.2279 35.9909C44.5975 36.4067 45.0826 36.6146 45.6832 36.6146C46.1452 36.6146 46.5302 36.5068 46.8382 36.2912C47.1462 36.0756 47.358 35.7676 47.4735 35.3672H48.6054C48.436 36.014 48.0972 36.5338 47.589 36.9265C47.0808 37.3115 46.4455 37.504 45.6832 37.504C45.0826 37.504 44.5475 37.3692 44.0778 37.0997C43.6158 36.8302 43.2539 36.4491 42.9921 35.9563C42.7303 35.4635 42.5994 34.886 42.5994 34.2238Z" fill="white"/>
<path d="M52.0598 31.9369V35.6675C52.0598 35.9755 52.1253 36.195 52.2562 36.3259C52.3871 36.4491 52.6142 36.5107 52.9376 36.5107H53.7115V37.4H52.7644C52.1792 37.4 51.7403 37.2653 51.4477 36.9958C51.1551 36.7263 51.0088 36.2835 51.0088 35.6675V31.9369H50.1887V31.0706H51.0088V29.4767H52.0598V31.0706H53.7115V31.9369H52.0598Z" fill="white"/>
<path d="M56.2978 30.0427C56.0976 30.0427 55.9282 29.9734 55.7896 29.8348C55.651 29.6962 55.5817 29.5268 55.5817 29.3266C55.5817 29.1264 55.651 28.957 55.7896 28.8184C55.9282 28.6798 56.0976 28.6105 56.2978 28.6105C56.4903 28.6105 56.652 28.6798 56.7829 28.8184C56.9215 28.957 56.9908 29.1264 56.9908 29.3266C56.9908 29.5268 56.9215 29.6962 56.7829 29.8348C56.652 29.9734 56.4903 30.0427 56.2978 30.0427ZM56.806 31.0706V37.4H55.755V31.0706H56.806Z" fill="white"/>
<path d="M61.7236 36.4298L63.687 31.0706H64.8074L62.3242 37.4H61.0998L58.6166 31.0706H59.7485L61.7236 36.4298Z" fill="white"/>
<path d="M67.1545 30.0427C66.9543 30.0427 66.7849 29.9734 66.6463 29.8348C66.5077 29.6962 66.4384 29.5268 66.4384 29.3266C66.4384 29.1264 66.5077 28.957 66.6463 28.8184C66.7849 28.6798 66.9543 28.6105 67.1545 28.6105C67.347 28.6105 67.5087 28.6798 67.6396 28.8184C67.7782 28.957 67.8475 29.1264 67.8475 29.3266C67.8475 29.5268 67.7782 29.6962 67.6396 29.8348C67.5087 29.9734 67.347 30.0427 67.1545 30.0427ZM67.6627 31.0706V37.4H66.6117V31.0706H67.6627Z" fill="white"/>
<path d="M71.5061 31.9369V35.6675C71.5061 35.9755 71.5715 36.195 71.7024 36.3259C71.8333 36.4491 72.0605 36.5107 72.3839 36.5107H73.1577V37.4H72.2106C71.6254 37.4 71.1865 37.2653 70.8939 36.9958C70.6013 36.7263 70.455 36.2835 70.455 35.6675V31.9369H69.635V31.0706H70.455V29.4767H71.5061V31.0706H73.1577V31.9369H71.5061Z" fill="white"/>
<path d="M80.6528 31.0706L76.8413 40.3799H75.7556L77.003 37.3307L74.4505 31.0706H75.617L77.6036 36.1988L79.5671 31.0706H80.6528Z" fill="white"/>
<g clip-path="url(#clip0_1_881)">
<path d="M33.55 53.6022V52.0045H37.169V65.9222H35.398V53.6022H33.55Z" fill="white"/>
<path d="M43.1041 58.6842C42.3854 58.4019 41.8336 57.9912 41.4486 57.4522C41.0636 56.9132 40.8711 56.2587 40.8711 55.4887C40.8711 54.7957 41.0443 54.1733 41.3908 53.6215C41.7373 53.0568 42.2506 52.6141 42.9308 52.2932C43.6238 51.9596 44.458 51.7927 45.4333 51.7927C46.4086 51.7927 47.2364 51.9596 47.9166 52.2932C48.6096 52.6141 49.1293 53.0568 49.4758 53.6215C49.8351 54.1733 50.0148 54.7957 50.0148 55.4887C50.0148 56.2331 49.8159 56.8876 49.4181 57.4522C49.0202 58.0041 48.4748 58.4147 47.7818 58.6842C48.5775 58.9281 49.2063 59.358 49.6683 59.974C50.1431 60.5771 50.3806 61.3086 50.3806 62.1685C50.3806 63.0026 50.1752 63.7341 49.7646 64.363C49.3539 64.979 48.77 65.4602 48.0128 65.8067C47.2685 66.1404 46.4086 66.3072 45.4333 66.3072C44.458 66.3072 43.5981 66.1404 42.8538 65.8067C42.1223 65.4602 41.5512 64.979 41.1406 64.363C40.7299 63.7341 40.5246 63.0026 40.5246 62.1685C40.5246 61.3086 40.7556 60.5707 41.2176 59.9547C41.6796 59.3387 42.3084 58.9152 43.1041 58.6842ZM48.3208 55.7005C48.3208 54.9176 48.0641 54.3145 47.5508 53.891C47.0375 53.4675 46.3316 53.2557 45.4333 53.2557C44.5478 53.2557 43.8484 53.4675 43.3351 53.891C42.8217 54.3145 42.5651 54.9241 42.5651 55.7197C42.5651 56.4384 42.8281 57.0159 43.3543 57.4522C43.8933 57.8886 44.5863 58.1067 45.4333 58.1067C46.2931 58.1067 46.9861 57.8886 47.5123 57.4522C48.0513 57.0031 48.3208 56.4191 48.3208 55.7005ZM45.4333 59.4542C44.4836 59.4542 43.7072 59.6788 43.1041 60.128C42.5009 60.5643 42.1993 61.2252 42.1993 62.1107C42.1993 62.9321 42.4881 63.593 43.0656 64.0935C43.6559 64.594 44.4451 64.8442 45.4333 64.8442C46.4215 64.8442 47.2043 64.594 47.7818 64.0935C48.3593 63.593 48.6481 62.9321 48.6481 62.1107C48.6481 61.2509 48.3529 60.5964 47.7626 60.1472C47.1722 59.6852 46.3958 59.4542 45.4333 59.4542Z" fill="white"/>
<path fill-rule="evenodd" clip-rule="evenodd" d="M63.7103 53.0194C63.5572 52.8469 63.2878 52.8469 63.1347 53.0194L58.1801 58.5974C57.9595 58.8457 58.1358 59.2381 58.4679 59.2381H60.3426C60.5552 59.2381 60.7276 59.4104 60.7276 59.6231V64.4356C60.7276 64.6482 60.9 64.8206 61.1126 64.8206H65.7326C65.9452 64.8206 66.1176 64.6482 66.1176 64.4356V59.6231C66.1176 59.4104 66.29 59.2381 66.5026 59.2381H68.3771C68.7092 59.2381 68.8855 58.8457 68.6649 58.5974L63.7103 53.0194L63.9982 52.7637L63.7103 53.0194ZM62.559 52.508C63.0184 51.9907 63.8266 51.9907 64.286 52.508L69.2406 58.0861C69.9023 58.831 69.3735 60.0081 68.3771 60.0081H66.8876V64.4356C66.8876 65.0735 66.3705 65.5906 65.7326 65.5906H61.1126C60.4747 65.5906 59.9576 65.0735 59.9576 64.4356V60.0081H58.4679C57.4715 60.0081 56.9427 58.831 57.6044 58.0861L62.559 52.508Z" fill="white"/>
</g>
</g>
<defs>
<filter id="filter0_d_1_881" x="0.440001" y="0.915" width="197.12" height="120.12" filterUnits="userSpaceOnUse" color-interpolation-filters="sRGB">
<feFlood flood-opacity="0" result="BackgroundImageFix"/>
<feColorMatrix in="SourceAlpha" type="matrix" values="0 0 0 0 0 0 0 0 0 0 0 0 0 0 0 0 0 0 127 0" result="hardAlpha"/>
<feOffset dy="13.475"/>
<feGaussianBlur stdDeviation="10.78"/>
<feColorMatrix type="matrix" values="0 0 0 0 0 0 0 0 0 0 0 0 0 0 0 0 0 0 0.1 0"/>
<feBlend mode="normal" in2="BackgroundImageFix" result="effect1_dropShadow_1_881"/>
<feBlend mode="normal" in="SourceGraphic" in2="effect1_dropShadow_1_881" result="shape"/>
</filter>
<clipPath id="clip0_1_881">
<rect width="39.1605" height="18.48" fill="white" transform="translate(33.55 49.81)"/>
</clipPath>
</defs>
</svg>
