<svg width="33" height="33" viewBox="0 0 33 33" fill="none" xmlns="http://www.w3.org/2000/svg">
<path d="M24.4185 19.6462C24.0732 19.9809 23.9145 20.4649 23.9932 20.9395L25.1785 27.4995C25.2785 28.0555 25.0439 28.6182 24.5785 28.9395C24.1225 29.2729 23.5159 29.3129 23.0185 29.0462L17.1132 25.9662C16.9079 25.8569 16.6799 25.7982 16.4465 25.7915H16.0852C15.9599 25.8102 15.8372 25.8502 15.7252 25.9115L9.81853 29.0062C9.52653 29.1529 9.19586 29.2049 8.87186 29.1529C8.08253 29.0035 7.55586 28.2515 7.68519 27.4582L8.87186 20.8982C8.95053 20.4195 8.79186 19.9329 8.44653 19.5929L3.63186 14.9262C3.22919 14.5355 3.08919 13.9489 3.27319 13.4196C3.45186 12.8916 3.90786 12.5062 4.45853 12.4196L11.0852 11.4582C11.5892 11.4062 12.0319 11.0996 12.2585 10.6462L15.1785 4.65956C15.2479 4.52623 15.3372 4.40356 15.4452 4.29956L15.5652 4.20623C15.6279 4.1369 15.6999 4.07956 15.7799 4.0329L15.9252 3.97956L16.1519 3.88623H16.7132C17.2145 3.93823 17.6559 4.23823 17.8865 4.68623L20.8452 10.6462C21.0585 11.0822 21.4732 11.3849 21.9519 11.4582L28.5785 12.4196C29.1385 12.4996 29.6065 12.8862 29.7919 13.4196C29.9665 13.9542 29.8159 14.5409 29.4052 14.9262L24.4185 19.6462Z" fill="#FACD49"/>
</svg>
