<svg width="19" height="16" viewBox="0 0 19 16" fill="none" xmlns="http://www.w3.org/2000/svg">
<path d="M18.8006 2.49869C18.115 2.80273 17.3774 3.00837 16.6039 3.10021C17.3937 2.62704 17.9998 1.87835 18.2858 0.984772C17.5468 1.42315 16.728 1.74116 15.8572 1.91258C15.1596 1.16959 14.1656 0.705261 13.065 0.705261C10.9532 0.705261 9.24051 2.41798 9.24051 4.52971C9.24051 4.82947 9.27445 5.12125 9.34005 5.40133C6.16161 5.24189 3.3434 3.71941 1.45699 1.40489C1.12785 1.96962 0.939039 2.62704 0.939039 3.32781C0.939039 4.65435 1.61471 5.82544 2.64035 6.5111C2.01373 6.49142 1.42362 6.31944 0.908236 6.03223C0.90795 6.04848 0.90795 6.06474 0.90795 6.08071C0.90795 7.93375 2.22679 9.47934 3.97601 9.83044C3.65543 9.91828 3.31688 9.96477 2.96863 9.96477C2.72163 9.96477 2.48234 9.9411 2.24903 9.8966C2.73561 11.4157 4.14771 12.5214 5.82164 12.5525C4.5125 13.5784 2.86367 14.1897 1.07138 14.1897C0.763346 14.1897 0.458166 14.1717 0.159546 14.136C1.85116 15.2216 3.86192 15.8545 6.02157 15.8545C13.0561 15.8545 16.9031 10.0269 16.9031 4.97265C16.9031 4.80694 16.8994 4.6418 16.892 4.47809C17.6398 3.93903 18.2881 3.26564 18.8006 2.49869Z" fill="#F1F2F2"/>
</svg>
