<svg width="20" height="16" viewBox="0 0 20 16" fill="none" xmlns="http://www.w3.org/2000/svg">
<path d="M9.81417 15.646C9.8126 15.646 9.81089 15.646 9.80918 15.646C9.24531 15.6417 4.26039 15.5909 2.84806 15.1645C1.86103 14.8683 1.08187 13.9993 0.815826 12.8972C0.446277 11.3483 0.469801 8.36621 0.472368 8.12809C0.469944 7.89108 0.446134 4.88431 0.814685 3.32267C0.815113 3.32123 0.815398 3.31964 0.815826 3.31821C1.07887 2.22867 1.87557 1.33285 2.84564 1.03583C2.84806 1.03504 2.85063 1.0344 2.85305 1.03361C4.24941 0.623895 9.24417 0.573756 9.80918 0.569458H9.81931C10.3846 0.573756 15.3828 0.624532 16.7821 1.05159C17.7666 1.34702 18.5452 2.21483 18.812 3.3155C19.1953 4.87826 19.1598 7.89156 19.156 8.14592C19.1587 8.39645 19.1811 11.3518 18.8137 12.9085C18.8134 12.9101 18.8129 12.9115 18.8127 12.913C18.5465 14.0151 17.7675 14.884 16.7793 15.1805C16.778 15.181 16.7766 15.1813 16.7753 15.1818C15.3791 15.5914 10.3842 15.6415 9.81931 15.646C9.8176 15.646 9.81588 15.646 9.81417 15.646ZM2.22587 3.74065C1.90138 5.11909 1.93203 8.0875 1.93231 8.11742V8.13891C1.92262 8.96215 1.95669 11.3462 2.22601 12.4754C2.35661 13.0161 2.74085 13.4445 3.22816 13.5907C4.27023 13.9054 8.33027 14.0044 9.81417 14.016C11.3019 14.0044 15.368 13.9081 16.4023 13.606C16.8881 13.4593 17.271 13.0324 17.4025 12.491C17.6721 11.3453 17.7059 8.97282 17.696 8.15483C17.696 8.14623 17.696 8.13764 17.6962 8.12904C17.7096 7.29593 17.6832 4.88399 17.4038 3.74575C17.4035 3.74463 17.4032 3.74352 17.403 3.7424C17.2719 3.19931 16.8875 2.77097 16.4002 2.62469C15.3682 2.30969 11.3016 2.21101 9.81417 2.19939C8.32742 2.21101 4.26538 2.30715 3.22787 2.60894C2.74983 2.75697 2.3569 3.20058 2.22587 3.74065ZM18.1078 12.701H18.1082H18.1078ZM7.95345 11.4082V4.80711L13.0633 8.10771L7.95345 11.4082Z" fill="white"/>
</svg>
